<svg xmlns="http://www.w3.org/2000/svg" xmlns:xlink="http://www.w3.org/1999/xlink" width="1920" zoomAndPan="magnify" viewBox="0 0 1440 809.999993" height="1080" preserveAspectRatio="xMidYMid meet" version="1.0"><defs><g/><clipPath id="44222dc0ea"><path d="M 793 501 L 1062 501 L 1062 770 L 793 770 Z M 793 501 " clip-rule="nonzero"/></clipPath><clipPath id="b42c145fe7"><path d="M 953.679688 447.339844 L 1115.609375 661.21875 L 901.726562 823.148438 L 739.796875 609.269531 Z M 953.679688 447.339844 " clip-rule="nonzero"/></clipPath><clipPath id="fb6fc6613c"><path d="M 1034.644531 554.28125 C 989.929688 495.21875 905.800781 483.585938 846.738281 528.304688 C 787.675781 573.019531 776.046875 657.148438 820.761719 716.207031 C 865.476562 775.269531 949.605469 786.898438 1008.667969 742.183594 C 1067.730469 697.46875 1079.359375 613.339844 1034.644531 554.28125 Z M 1034.644531 554.28125 " clip-rule="nonzero"/></clipPath><clipPath id="e9ec992ff1"><path d="M 901 545 L 982 545 L 982 648 L 901 648 Z M 901 545 " clip-rule="nonzero"/></clipPath><clipPath id="b2866643c0"><path d="M 966.613281 536.875 L 990.214844 554.070312 L 919.152344 651.605469 L 895.550781 634.414062 Z M 966.613281 536.875 " clip-rule="nonzero"/></clipPath><clipPath id="e39cc6ae5e"><path d="M 978.414062 545.472656 L 958.015625 548.675781 L 963.917969 552.972656 L 901.464844 638.691406 L 913.265625 647.289062 L 975.714844 561.570312 L 981.617188 565.871094 Z M 978.414062 545.472656 " clip-rule="nonzero"/></clipPath><clipPath id="86b4cf98c1"><path d="M 898 619 L 977 619 L 977 655 L 898 655 Z M 898 619 " clip-rule="nonzero"/></clipPath><clipPath id="a75f0afde3"><path d="M 973.625 616.625 L 979.589844 645.210938 L 902.769531 661.246094 L 896.804688 632.660156 Z M 973.625 616.625 " clip-rule="nonzero"/></clipPath><clipPath id="d3ddf4983d"><path d="M 976.609375 630.917969 L 959.332031 619.609375 L 960.824219 626.753906 L 898.324219 639.800781 L 901.308594 654.09375 L 963.808594 641.046875 L 965.296875 648.191406 Z M 976.609375 630.917969 " clip-rule="nonzero"/></clipPath><clipPath id="f3538293f2"><path d="M 887 637 L 917 637 L 917 667 L 887 667 Z M 887 637 " clip-rule="nonzero"/></clipPath><clipPath id="587b340297"><path d="M 899.039062 631.222656 L 922.597656 648.386719 L 905.433594 671.945312 L 881.875 654.78125 Z M 899.039062 631.222656 " clip-rule="nonzero"/></clipPath><clipPath id="776e486c07"><path d="M 910.820312 639.804688 C 904.3125 635.066406 895.195312 636.5 890.457031 643.003906 C 885.71875 649.507812 887.148438 658.625 893.65625 663.363281 C 900.160156 668.105469 909.277344 666.671875 914.015625 660.167969 C 918.753906 653.664062 917.324219 644.546875 910.820312 639.804688 Z M 910.820312 639.804688 " clip-rule="nonzero"/></clipPath></defs><g fill="#ede3c0" fill-opacity="1"><g transform="translate(980.543933, 155.47554)"><g><path d="M 5.09375 -2.859375 C 2.414062 -5.242188 1.078125 -8.300781 1.078125 -12.03125 C 1.078125 -15.757812 2.472656 -18.820312 5.265625 -21.21875 C 8.054688 -23.613281 11.503906 -24.8125 15.609375 -24.8125 C 19.648438 -24.8125 23.054688 -23.601562 25.828125 -21.1875 C 28.597656 -18.78125 29.984375 -15.726562 29.984375 -12.03125 C 29.984375 -8.332031 28.628906 -5.285156 25.921875 -2.890625 C 23.210938 -0.492188 19.773438 0.703125 15.609375 0.703125 C 11.285156 0.703125 7.78125 -0.484375 5.09375 -2.859375 Z M 11.53125 -16.109375 C 10.457031 -15.046875 9.921875 -13.6875 9.921875 -12.03125 C 9.921875 -10.375 10.4375 -9.019531 11.46875 -7.96875 C 12.5 -6.914062 13.863281 -6.390625 15.5625 -6.390625 C 17.1875 -6.390625 18.523438 -6.921875 19.578125 -7.984375 C 20.628906 -9.054688 21.15625 -10.40625 21.15625 -12.03125 C 21.15625 -13.6875 20.613281 -15.046875 19.53125 -16.109375 C 18.445312 -17.179688 17.125 -17.71875 15.5625 -17.71875 C 13.957031 -17.71875 12.613281 -17.179688 11.53125 -16.109375 Z M 11.53125 -16.109375 "/></g></g></g><g fill="#ede3c0" fill-opacity="1"><g transform="translate(994.8187, 183.510068)"><g><path d="M 5.09375 -2.859375 C 2.414062 -5.242188 1.078125 -8.300781 1.078125 -12.03125 C 1.078125 -15.757812 2.472656 -18.820312 5.265625 -21.21875 C 8.054688 -23.613281 11.503906 -24.8125 15.609375 -24.8125 C 19.648438 -24.8125 23.054688 -23.601562 25.828125 -21.1875 C 28.597656 -18.78125 29.984375 -15.726562 29.984375 -12.03125 C 29.984375 -8.332031 28.628906 -5.285156 25.921875 -2.890625 C 23.210938 -0.492188 19.773438 0.703125 15.609375 0.703125 C 11.285156 0.703125 7.78125 -0.484375 5.09375 -2.859375 Z M 11.53125 -16.109375 C 10.457031 -15.046875 9.921875 -13.6875 9.921875 -12.03125 C 9.921875 -10.375 10.4375 -9.019531 11.46875 -7.96875 C 12.5 -6.914062 13.863281 -6.390625 15.5625 -6.390625 C 17.1875 -6.390625 18.523438 -6.921875 19.578125 -7.984375 C 20.628906 -9.054688 21.15625 -10.40625 21.15625 -12.03125 C 21.15625 -13.6875 20.613281 -15.046875 19.53125 -16.109375 C 18.445312 -17.179688 17.125 -17.71875 15.5625 -17.71875 C 13.957031 -17.71875 12.613281 -17.179688 11.53125 -16.109375 Z M 11.53125 -16.109375 "/></g></g></g><g fill="#d0011b" fill-opacity="1"><g transform="translate(980.543933, 211.544585)"><g><path d="M 5.09375 -2.859375 C 2.414062 -5.242188 1.078125 -8.300781 1.078125 -12.03125 C 1.078125 -15.757812 2.472656 -18.820312 5.265625 -21.21875 C 8.054688 -23.613281 11.503906 -24.8125 15.609375 -24.8125 C 19.648438 -24.8125 23.054688 -23.601562 25.828125 -21.1875 C 28.597656 -18.78125 29.984375 -15.726562 29.984375 -12.03125 C 29.984375 -8.332031 28.628906 -5.285156 25.921875 -2.890625 C 23.210938 -0.492188 19.773438 0.703125 15.609375 0.703125 C 11.285156 0.703125 7.78125 -0.484375 5.09375 -2.859375 Z M 11.53125 -16.109375 C 10.457031 -15.046875 9.921875 -13.6875 9.921875 -12.03125 C 9.921875 -10.375 10.4375 -9.019531 11.46875 -7.96875 C 12.5 -6.914062 13.863281 -6.390625 15.5625 -6.390625 C 17.1875 -6.390625 18.523438 -6.921875 19.578125 -7.984375 C 20.628906 -9.054688 21.15625 -10.40625 21.15625 -12.03125 C 21.15625 -13.6875 20.613281 -15.046875 19.53125 -16.109375 C 18.445312 -17.179688 17.125 -17.71875 15.5625 -17.71875 C 13.957031 -17.71875 12.613281 -17.179688 11.53125 -16.109375 Z M 11.53125 -16.109375 "/></g></g></g><g fill="#ede3c0" fill-opacity="1"><g transform="translate(966.269142, 239.579115)"><g><path d="M 5.09375 -2.859375 C 2.414062 -5.242188 1.078125 -8.300781 1.078125 -12.03125 C 1.078125 -15.757812 2.472656 -18.820312 5.265625 -21.21875 C 8.054688 -23.613281 11.503906 -24.8125 15.609375 -24.8125 C 19.648438 -24.8125 23.054688 -23.601562 25.828125 -21.1875 C 28.597656 -18.78125 29.984375 -15.726562 29.984375 -12.03125 C 29.984375 -8.332031 28.628906 -5.285156 25.921875 -2.890625 C 23.210938 -0.492188 19.773438 0.703125 15.609375 0.703125 C 11.285156 0.703125 7.78125 -0.484375 5.09375 -2.859375 Z M 11.53125 -16.109375 C 10.457031 -15.046875 9.921875 -13.6875 9.921875 -12.03125 C 9.921875 -10.375 10.4375 -9.019531 11.46875 -7.96875 C 12.5 -6.914062 13.863281 -6.390625 15.5625 -6.390625 C 17.1875 -6.390625 18.523438 -6.921875 19.578125 -7.984375 C 20.628906 -9.054688 21.15625 -10.40625 21.15625 -12.03125 C 21.15625 -13.6875 20.613281 -15.046875 19.53125 -16.109375 C 18.445312 -17.179688 17.125 -17.71875 15.5625 -17.71875 C 13.957031 -17.71875 12.613281 -17.179688 11.53125 -16.109375 Z M 11.53125 -16.109375 "/></g></g></g><g fill="#ede3c0" fill-opacity="1"><g transform="translate(951.994302, 267.613643)"><g><path d="M 5.09375 -2.859375 C 2.414062 -5.242188 1.078125 -8.300781 1.078125 -12.03125 C 1.078125 -15.757812 2.472656 -18.820312 5.265625 -21.21875 C 8.054688 -23.613281 11.503906 -24.8125 15.609375 -24.8125 C 19.648438 -24.8125 23.054688 -23.601562 25.828125 -21.1875 C 28.597656 -18.78125 29.984375 -15.726562 29.984375 -12.03125 C 29.984375 -8.332031 28.628906 -5.285156 25.921875 -2.890625 C 23.210938 -0.492188 19.773438 0.703125 15.609375 0.703125 C 11.285156 0.703125 7.78125 -0.484375 5.09375 -2.859375 Z M 11.53125 -16.109375 C 10.457031 -15.046875 9.921875 -13.6875 9.921875 -12.03125 C 9.921875 -10.375 10.4375 -9.019531 11.46875 -7.96875 C 12.5 -6.914062 13.863281 -6.390625 15.5625 -6.390625 C 17.1875 -6.390625 18.523438 -6.921875 19.578125 -7.984375 C 20.628906 -9.054688 21.15625 -10.40625 21.15625 -12.03125 C 21.15625 -13.6875 20.613281 -15.046875 19.53125 -16.109375 C 18.445312 -17.179688 17.125 -17.71875 15.5625 -17.71875 C 13.957031 -17.71875 12.613281 -17.179688 11.53125 -16.109375 Z M 11.53125 -16.109375 "/></g></g></g><g fill="#ede3c0" fill-opacity="1"><g transform="translate(966.269142, 351.71719)"><g><path d="M 5.09375 -2.859375 C 2.414062 -5.242188 1.078125 -8.300781 1.078125 -12.03125 C 1.078125 -15.757812 2.472656 -18.820312 5.265625 -21.21875 C 8.054688 -23.613281 11.503906 -24.8125 15.609375 -24.8125 C 19.648438 -24.8125 23.054688 -23.601562 25.828125 -21.1875 C 28.597656 -18.78125 29.984375 -15.726562 29.984375 -12.03125 C 29.984375 -8.332031 28.628906 -5.285156 25.921875 -2.890625 C 23.210938 -0.492188 19.773438 0.703125 15.609375 0.703125 C 11.285156 0.703125 7.78125 -0.484375 5.09375 -2.859375 Z M 11.53125 -16.109375 C 10.457031 -15.046875 9.921875 -13.6875 9.921875 -12.03125 C 9.921875 -10.375 10.4375 -9.019531 11.46875 -7.96875 C 12.5 -6.914062 13.863281 -6.390625 15.5625 -6.390625 C 17.1875 -6.390625 18.523438 -6.921875 19.578125 -7.984375 C 20.628906 -9.054688 21.15625 -10.40625 21.15625 -12.03125 C 21.15625 -13.6875 20.613281 -15.046875 19.53125 -16.109375 C 18.445312 -17.179688 17.125 -17.71875 15.5625 -17.71875 C 13.957031 -17.71875 12.613281 -17.179688 11.53125 -16.109375 Z M 11.53125 -16.109375 "/></g></g></g><g fill="#ede3c0" fill-opacity="1"><g transform="translate(951.994302, 323.68269)"><g><path d="M 5.09375 -2.859375 C 2.414062 -5.242188 1.078125 -8.300781 1.078125 -12.03125 C 1.078125 -15.757812 2.472656 -18.820312 5.265625 -21.21875 C 8.054688 -23.613281 11.503906 -24.8125 15.609375 -24.8125 C 19.648438 -24.8125 23.054688 -23.601562 25.828125 -21.1875 C 28.597656 -18.78125 29.984375 -15.726562 29.984375 -12.03125 C 29.984375 -8.332031 28.628906 -5.285156 25.921875 -2.890625 C 23.210938 -0.492188 19.773438 0.703125 15.609375 0.703125 C 11.285156 0.703125 7.78125 -0.484375 5.09375 -2.859375 Z M 11.53125 -16.109375 C 10.457031 -15.046875 9.921875 -13.6875 9.921875 -12.03125 C 9.921875 -10.375 10.4375 -9.019531 11.46875 -7.96875 C 12.5 -6.914062 13.863281 -6.390625 15.5625 -6.390625 C 17.1875 -6.390625 18.523438 -6.921875 19.578125 -7.984375 C 20.628906 -9.054688 21.15625 -10.40625 21.15625 -12.03125 C 21.15625 -13.6875 20.613281 -15.046875 19.53125 -16.109375 C 18.445312 -17.179688 17.125 -17.71875 15.5625 -17.71875 C 13.957031 -17.71875 12.613281 -17.179688 11.53125 -16.109375 Z M 11.53125 -16.109375 "/></g></g></g><g fill="#d0011b" fill-opacity="1"><g transform="translate(937.719511, 295.64816)"><g><path d="M 5.09375 -2.859375 C 2.414062 -5.242188 1.078125 -8.300781 1.078125 -12.03125 C 1.078125 -15.757812 2.472656 -18.820312 5.265625 -21.21875 C 8.054688 -23.613281 11.503906 -24.8125 15.609375 -24.8125 C 19.648438 -24.8125 23.054688 -23.601562 25.828125 -21.1875 C 28.597656 -18.78125 29.984375 -15.726562 29.984375 -12.03125 C 29.984375 -8.332031 28.628906 -5.285156 25.921875 -2.890625 C 23.210938 -0.492188 19.773438 0.703125 15.609375 0.703125 C 11.285156 0.703125 7.78125 -0.484375 5.09375 -2.859375 Z M 11.53125 -16.109375 C 10.457031 -15.046875 9.921875 -13.6875 9.921875 -12.03125 C 9.921875 -10.375 10.4375 -9.019531 11.46875 -7.96875 C 12.5 -6.914062 13.863281 -6.390625 15.5625 -6.390625 C 17.1875 -6.390625 18.523438 -6.921875 19.578125 -7.984375 C 20.628906 -9.054688 21.15625 -10.40625 21.15625 -12.03125 C 21.15625 -13.6875 20.613281 -15.046875 19.53125 -16.109375 C 18.445312 -17.179688 17.125 -17.71875 15.5625 -17.71875 C 13.957031 -17.71875 12.613281 -17.179688 11.53125 -16.109375 Z M 11.53125 -16.109375 "/></g></g></g><g fill="#ede3c0" fill-opacity="1"><g transform="translate(973.297277, 407.786251)"><g><path d="M 5.09375 -2.859375 C 2.414062 -5.242188 1.078125 -8.300781 1.078125 -12.03125 C 1.078125 -15.757812 2.472656 -18.820312 5.265625 -21.21875 C 8.054688 -23.613281 11.503906 -24.8125 15.609375 -24.8125 C 19.648438 -24.8125 23.054688 -23.601562 25.828125 -21.1875 C 28.597656 -18.78125 29.984375 -15.726562 29.984375 -12.03125 C 29.984375 -8.332031 28.628906 -5.285156 25.921875 -2.890625 C 23.210938 -0.492188 19.773438 0.703125 15.609375 0.703125 C 11.285156 0.703125 7.78125 -0.484375 5.09375 -2.859375 Z M 11.53125 -16.109375 C 10.457031 -15.046875 9.921875 -13.6875 9.921875 -12.03125 C 9.921875 -10.375 10.4375 -9.019531 11.46875 -7.96875 C 12.5 -6.914062 13.863281 -6.390625 15.5625 -6.390625 C 17.1875 -6.390625 18.523438 -6.921875 19.578125 -7.984375 C 20.628906 -9.054688 21.15625 -10.40625 21.15625 -12.03125 C 21.15625 -13.6875 20.613281 -15.046875 19.53125 -16.109375 C 18.445312 -17.179688 17.125 -17.71875 15.5625 -17.71875 C 13.957031 -17.71875 12.613281 -17.179688 11.53125 -16.109375 Z M 11.53125 -16.109375 "/></g></g></g><g fill="#ede3c0" fill-opacity="1"><g transform="translate(980.543933, 379.75172)"><g><path d="M 5.09375 -2.859375 C 2.414062 -5.242188 1.078125 -8.300781 1.078125 -12.03125 C 1.078125 -15.757812 2.472656 -18.820312 5.265625 -21.21875 C 8.054688 -23.613281 11.503906 -24.8125 15.609375 -24.8125 C 19.648438 -24.8125 23.054688 -23.601562 25.828125 -21.1875 C 28.597656 -18.78125 29.984375 -15.726562 29.984375 -12.03125 C 29.984375 -8.332031 28.628906 -5.285156 25.921875 -2.890625 C 23.210938 -0.492188 19.773438 0.703125 15.609375 0.703125 C 11.285156 0.703125 7.78125 -0.484375 5.09375 -2.859375 Z M 11.53125 -16.109375 C 10.457031 -15.046875 9.921875 -13.6875 9.921875 -12.03125 C 9.921875 -10.375 10.4375 -9.019531 11.46875 -7.96875 C 12.5 -6.914062 13.863281 -6.390625 15.5625 -6.390625 C 17.1875 -6.390625 18.523438 -6.921875 19.578125 -7.984375 C 20.628906 -9.054688 21.15625 -10.40625 21.15625 -12.03125 C 21.15625 -13.6875 20.613281 -15.046875 19.53125 -16.109375 C 18.445312 -17.179688 17.125 -17.71875 15.5625 -17.71875 C 13.957031 -17.71875 12.613281 -17.179688 11.53125 -16.109375 Z M 11.53125 -16.109375 "/></g></g></g><g fill="#ede3c0" fill-opacity="1"><g transform="translate(959.022438, 463.855269)"><g><path d="M 5.09375 -2.859375 C 2.414062 -5.242188 1.078125 -8.300781 1.078125 -12.03125 C 1.078125 -15.757812 2.472656 -18.820312 5.265625 -21.21875 C 8.054688 -23.613281 11.503906 -24.8125 15.609375 -24.8125 C 19.648438 -24.8125 23.054688 -23.601562 25.828125 -21.1875 C 28.597656 -18.78125 29.984375 -15.726562 29.984375 -12.03125 C 29.984375 -8.332031 28.628906 -5.285156 25.921875 -2.890625 C 23.210938 -0.492188 19.773438 0.703125 15.609375 0.703125 C 11.285156 0.703125 7.78125 -0.484375 5.09375 -2.859375 Z M 11.53125 -16.109375 C 10.457031 -15.046875 9.921875 -13.6875 9.921875 -12.03125 C 9.921875 -10.375 10.4375 -9.019531 11.46875 -7.96875 C 12.5 -6.914062 13.863281 -6.390625 15.5625 -6.390625 C 17.1875 -6.390625 18.523438 -6.921875 19.578125 -7.984375 C 20.628906 -9.054688 21.15625 -10.40625 21.15625 -12.03125 C 21.15625 -13.6875 20.613281 -15.046875 19.53125 -16.109375 C 18.445312 -17.179688 17.125 -17.71875 15.5625 -17.71875 C 13.957031 -17.71875 12.613281 -17.179688 11.53125 -16.109375 Z M 11.53125 -16.109375 "/></g></g></g><g fill="#ede3c0" fill-opacity="1"><g transform="translate(959.022438, 435.820779)"><g><path d="M 5.09375 -2.859375 C 2.414062 -5.242188 1.078125 -8.300781 1.078125 -12.03125 C 1.078125 -15.757812 2.472656 -18.820312 5.265625 -21.21875 C 8.054688 -23.613281 11.503906 -24.8125 15.609375 -24.8125 C 19.648438 -24.8125 23.054688 -23.601562 25.828125 -21.1875 C 28.597656 -18.78125 29.984375 -15.726562 29.984375 -12.03125 C 29.984375 -8.332031 28.628906 -5.285156 25.921875 -2.890625 C 23.210938 -0.492188 19.773438 0.703125 15.609375 0.703125 C 11.285156 0.703125 7.78125 -0.484375 5.09375 -2.859375 Z M 11.53125 -16.109375 C 10.457031 -15.046875 9.921875 -13.6875 9.921875 -12.03125 C 9.921875 -10.375 10.4375 -9.019531 11.46875 -7.96875 C 12.5 -6.914062 13.863281 -6.390625 15.5625 -6.390625 C 17.1875 -6.390625 18.523438 -6.921875 19.578125 -7.984375 C 20.628906 -9.054688 21.15625 -10.40625 21.15625 -12.03125 C 21.15625 -13.6875 20.613281 -15.046875 19.53125 -16.109375 C 18.445312 -17.179688 17.125 -17.71875 15.5625 -17.71875 C 13.957031 -17.71875 12.613281 -17.179688 11.53125 -16.109375 Z M 11.53125 -16.109375 "/></g></g></g><g fill="#ede3c0" fill-opacity="1"><g transform="translate(973.297277, 491.889811)"><g><path d="M 5.09375 -2.859375 C 2.414062 -5.242188 1.078125 -8.300781 1.078125 -12.03125 C 1.078125 -15.757812 2.472656 -18.820312 5.265625 -21.21875 C 8.054688 -23.613281 11.503906 -24.8125 15.609375 -24.8125 C 19.648438 -24.8125 23.054688 -23.601562 25.828125 -21.1875 C 28.597656 -18.78125 29.984375 -15.726562 29.984375 -12.03125 C 29.984375 -8.332031 28.628906 -5.285156 25.921875 -2.890625 C 23.210938 -0.492188 19.773438 0.703125 15.609375 0.703125 C 11.285156 0.703125 7.78125 -0.484375 5.09375 -2.859375 Z M 11.53125 -16.109375 C 10.457031 -15.046875 9.921875 -13.6875 9.921875 -12.03125 C 9.921875 -10.375 10.4375 -9.019531 11.46875 -7.96875 C 12.5 -6.914062 13.863281 -6.390625 15.5625 -6.390625 C 17.1875 -6.390625 18.523438 -6.921875 19.578125 -7.984375 C 20.628906 -9.054688 21.15625 -10.40625 21.15625 -12.03125 C 21.15625 -13.6875 20.613281 -15.046875 19.53125 -16.109375 C 18.445312 -17.179688 17.125 -17.71875 15.5625 -17.71875 C 13.957031 -17.71875 12.613281 -17.179688 11.53125 -16.109375 Z M 11.53125 -16.109375 "/></g></g></g><g fill="#d0011b" fill-opacity="1"><g transform="translate(980.543933, 127.441017)"><g><path d="M 5.09375 -2.859375 C 2.414062 -5.242188 1.078125 -8.300781 1.078125 -12.03125 C 1.078125 -15.757812 2.472656 -18.820312 5.265625 -21.21875 C 8.054688 -23.613281 11.503906 -24.8125 15.609375 -24.8125 C 19.648438 -24.8125 23.054688 -23.601562 25.828125 -21.1875 C 28.597656 -18.78125 29.984375 -15.726562 29.984375 -12.03125 C 29.984375 -8.332031 28.628906 -5.285156 25.921875 -2.890625 C 23.210938 -0.492188 19.773438 0.703125 15.609375 0.703125 C 11.285156 0.703125 7.78125 -0.484375 5.09375 -2.859375 Z M 11.53125 -16.109375 C 10.457031 -15.046875 9.921875 -13.6875 9.921875 -12.03125 C 9.921875 -10.375 10.4375 -9.019531 11.46875 -7.96875 C 12.5 -6.914062 13.863281 -6.390625 15.5625 -6.390625 C 17.1875 -6.390625 18.523438 -6.921875 19.578125 -7.984375 C 20.628906 -9.054688 21.15625 -10.40625 21.15625 -12.03125 C 21.15625 -13.6875 20.613281 -15.046875 19.53125 -16.109375 C 18.445312 -17.179688 17.125 -17.71875 15.5625 -17.71875 C 13.957031 -17.71875 12.613281 -17.179688 11.53125 -16.109375 Z M 11.53125 -16.109375 "/></g></g></g><g fill="#ede3c0" fill-opacity="1"><g transform="translate(980.543933, 519.814794)"><g><path d="M 5.09375 -2.859375 C 2.414062 -5.242188 1.078125 -8.300781 1.078125 -12.03125 C 1.078125 -15.757812 2.472656 -18.820312 5.265625 -21.21875 C 8.054688 -23.613281 11.503906 -24.8125 15.609375 -24.8125 C 19.648438 -24.8125 23.054688 -23.601562 25.828125 -21.1875 C 28.597656 -18.78125 29.984375 -15.726562 29.984375 -12.03125 C 29.984375 -8.332031 28.628906 -5.285156 25.921875 -2.890625 C 23.210938 -0.492188 19.773438 0.703125 15.609375 0.703125 C 11.285156 0.703125 7.78125 -0.484375 5.09375 -2.859375 Z M 11.53125 -16.109375 C 10.457031 -15.046875 9.921875 -13.6875 9.921875 -12.03125 C 9.921875 -10.375 10.4375 -9.019531 11.46875 -7.96875 C 12.5 -6.914062 13.863281 -6.390625 15.5625 -6.390625 C 17.1875 -6.390625 18.523438 -6.921875 19.578125 -7.984375 C 20.628906 -9.054688 21.15625 -10.40625 21.15625 -12.03125 C 21.15625 -13.6875 20.613281 -15.046875 19.53125 -16.109375 C 18.445312 -17.179688 17.125 -17.71875 15.5625 -17.71875 C 13.957031 -17.71875 12.613281 -17.179688 11.53125 -16.109375 Z M 11.53125 -16.109375 "/></g></g></g><g fill="#d0011b" fill-opacity="1"><g transform="translate(953.601222, 75.939332)"><g><path d="M 5.09375 -2.859375 C 2.414062 -5.242188 1.078125 -8.300781 1.078125 -12.03125 C 1.078125 -15.757812 2.472656 -18.820312 5.265625 -21.21875 C 8.054688 -23.613281 11.503906 -24.8125 15.609375 -24.8125 C 19.648438 -24.8125 23.054688 -23.601562 25.828125 -21.1875 C 28.597656 -18.78125 29.984375 -15.726562 29.984375 -12.03125 C 29.984375 -8.332031 28.628906 -5.285156 25.921875 -2.890625 C 23.210938 -0.492188 19.773438 0.703125 15.609375 0.703125 C 11.285156 0.703125 7.78125 -0.484375 5.09375 -2.859375 Z M 11.53125 -16.109375 C 10.457031 -15.046875 9.921875 -13.6875 9.921875 -12.03125 C 9.921875 -10.375 10.4375 -9.019531 11.46875 -7.96875 C 12.5 -6.914062 13.863281 -6.390625 15.5625 -6.390625 C 17.1875 -6.390625 18.523438 -6.921875 19.578125 -7.984375 C 20.628906 -9.054688 21.15625 -10.40625 21.15625 -12.03125 C 21.15625 -13.6875 20.613281 -15.046875 19.53125 -16.109375 C 18.445312 -17.179688 17.125 -17.71875 15.5625 -17.71875 C 13.957031 -17.71875 12.613281 -17.179688 11.53125 -16.109375 Z M 11.53125 -16.109375 "/></g></g></g><g fill="#ede3c0" fill-opacity="1"><g transform="translate(967.072566, 102.395878)"><g><path d="M 5.09375 -2.859375 C 2.414062 -5.242188 1.078125 -8.300781 1.078125 -12.03125 C 1.078125 -15.757812 2.472656 -18.820312 5.265625 -21.21875 C 8.054688 -23.613281 11.503906 -24.8125 15.609375 -24.8125 C 19.648438 -24.8125 23.054688 -23.601562 25.828125 -21.1875 C 28.597656 -18.78125 29.984375 -15.726562 29.984375 -12.03125 C 29.984375 -8.332031 28.628906 -5.285156 25.921875 -2.890625 C 23.210938 -0.492188 19.773438 0.703125 15.609375 0.703125 C 11.285156 0.703125 7.78125 -0.484375 5.09375 -2.859375 Z M 11.53125 -16.109375 C 10.457031 -15.046875 9.921875 -13.6875 9.921875 -12.03125 C 9.921875 -10.375 10.4375 -9.019531 11.46875 -7.96875 C 12.5 -6.914062 13.863281 -6.390625 15.5625 -6.390625 C 17.1875 -6.390625 18.523438 -6.921875 19.578125 -7.984375 C 20.628906 -9.054688 21.15625 -10.40625 21.15625 -12.03125 C 21.15625 -13.6875 20.613281 -15.046875 19.53125 -16.109375 C 18.445312 -17.179688 17.125 -17.71875 15.5625 -17.71875 C 13.957031 -17.71875 12.613281 -17.179688 11.53125 -16.109375 Z M 11.53125 -16.109375 "/></g></g></g><g fill="#d0011b" fill-opacity="1"><g transform="translate(962.371062, 49.482791)"><g><path d="M 5.09375 -2.859375 C 2.414062 -5.242188 1.078125 -8.300781 1.078125 -12.03125 C 1.078125 -15.757812 2.472656 -18.820312 5.265625 -21.21875 C 8.054688 -23.613281 11.503906 -24.8125 15.609375 -24.8125 C 19.648438 -24.8125 23.054688 -23.601562 25.828125 -21.1875 C 28.597656 -18.78125 29.984375 -15.726562 29.984375 -12.03125 C 29.984375 -8.332031 28.628906 -5.285156 25.921875 -2.890625 C 23.210938 -0.492188 19.773438 0.703125 15.609375 0.703125 C 11.285156 0.703125 7.78125 -0.484375 5.09375 -2.859375 Z M 11.53125 -16.109375 C 10.457031 -15.046875 9.921875 -13.6875 9.921875 -12.03125 C 9.921875 -10.375 10.4375 -9.019531 11.46875 -7.96875 C 12.5 -6.914062 13.863281 -6.390625 15.5625 -6.390625 C 17.1875 -6.390625 18.523438 -6.921875 19.578125 -7.984375 C 20.628906 -9.054688 21.15625 -10.40625 21.15625 -12.03125 C 21.15625 -13.6875 20.613281 -15.046875 19.53125 -16.109375 C 18.445312 -17.179688 17.125 -17.71875 15.5625 -17.71875 C 13.957031 -17.71875 12.613281 -17.179688 11.53125 -16.109375 Z M 11.53125 -16.109375 "/></g></g></g><g clip-path="url(#44222dc0ea)"><g clip-path="url(#b42c145fe7)"><g clip-path="url(#fb6fc6613c)"><path fill="#d0011b" d="M 953.679688 447.339844 L 1115.609375 661.21875 L 901.726562 823.148438 L 739.796875 609.269531 Z M 953.679688 447.339844 " fill-opacity="1" fill-rule="nonzero"/></g></g></g><g clip-path="url(#e9ec992ff1)"><g clip-path="url(#b2866643c0)"><g clip-path="url(#e39cc6ae5e)"><path fill="#ede3c0" d="M 966.613281 536.875 L 990.214844 554.070312 L 919.152344 651.605469 L 895.550781 634.414062 Z M 966.613281 536.875 " fill-opacity="1" fill-rule="nonzero"/></g></g></g><g clip-path="url(#86b4cf98c1)"><g clip-path="url(#a75f0afde3)"><g clip-path="url(#d3ddf4983d)"><path fill="#ede3c0" d="M 973.625 616.625 L 979.589844 645.210938 L 902.769531 661.246094 L 896.804688 632.660156 Z M 973.625 616.625 " fill-opacity="1" fill-rule="nonzero"/></g></g></g><g clip-path="url(#f3538293f2)"><g clip-path="url(#587b340297)"><g clip-path="url(#776e486c07)"><path fill="#000000" d="M 899.039062 631.222656 L 922.597656 648.386719 L 905.433594 671.945312 L 881.875 654.78125 Z M 899.039062 631.222656 " fill-opacity="1" fill-rule="nonzero"/></g></g></g><g fill="#ede3c0" fill-opacity="1"><g transform="translate(835.639287, 141.984596)"><g><path d="M 5.796875 0.765625 C 5.078125 -2.742188 5.835938 -5.988281 8.078125 -8.96875 C 10.316406 -11.957031 13.273438 -13.570312 16.953125 -13.8125 C 20.628906 -14.050781 24.109375 -12.9375 27.390625 -10.46875 C 30.617188 -8.039062 32.613281 -5.023438 33.375 -1.421875 C 34.144531 2.171875 33.414062 5.441406 31.1875 8.390625 C 28.96875 11.347656 26.054688 12.96875 22.453125 13.25 C 18.859375 13.539062 15.394531 12.4375 12.0625 9.9375 C 8.601562 7.34375 6.515625 4.285156 5.796875 0.765625 Z M 18.90625 -5.953125 C 17.40625 -5.753906 16.15625 -4.992188 15.15625 -3.671875 C 14.164062 -2.347656 13.765625 -0.957031 13.953125 0.5 C 14.148438 1.96875 14.925781 3.210938 16.28125 4.234375 C 17.582031 5.210938 18.972656 5.585938 20.453125 5.359375 C 21.941406 5.140625 23.171875 4.378906 24.140625 3.078125 C 25.140625 1.753906 25.523438 0.34375 25.296875 -1.15625 C 25.066406 -2.664062 24.328125 -3.890625 23.078125 -4.828125 C 21.796875 -5.785156 20.40625 -6.160156 18.90625 -5.953125 Z M 18.90625 -5.953125 "/></g></g></g><g fill="#ede3c0" fill-opacity="1"><g transform="translate(830.215311, 172.97307)"><g><path d="M 5.796875 0.765625 C 5.078125 -2.742188 5.835938 -5.988281 8.078125 -8.96875 C 10.316406 -11.957031 13.273438 -13.570312 16.953125 -13.8125 C 20.628906 -14.050781 24.109375 -12.9375 27.390625 -10.46875 C 30.617188 -8.039062 32.613281 -5.023438 33.375 -1.421875 C 34.144531 2.171875 33.414062 5.441406 31.1875 8.390625 C 28.96875 11.347656 26.054688 12.96875 22.453125 13.25 C 18.859375 13.539062 15.394531 12.4375 12.0625 9.9375 C 8.601562 7.34375 6.515625 4.285156 5.796875 0.765625 Z M 18.90625 -5.953125 C 17.40625 -5.753906 16.15625 -4.992188 15.15625 -3.671875 C 14.164062 -2.347656 13.765625 -0.957031 13.953125 0.5 C 14.148438 1.96875 14.925781 3.210938 16.28125 4.234375 C 17.582031 5.210938 18.972656 5.585938 20.453125 5.359375 C 21.941406 5.140625 23.171875 4.378906 24.140625 3.078125 C 25.140625 1.753906 25.523438 0.34375 25.296875 -1.15625 C 25.066406 -2.664062 24.328125 -3.890625 23.078125 -4.828125 C 21.796875 -5.785156 20.40625 -6.160156 18.90625 -5.953125 Z M 18.90625 -5.953125 "/></g></g></g><g fill="#d0011b" fill-opacity="1"><g transform="translate(801.964457, 186.814717)"><g><path d="M 5.796875 0.765625 C 5.078125 -2.742188 5.835938 -5.988281 8.078125 -8.96875 C 10.316406 -11.957031 13.273438 -13.570312 16.953125 -13.8125 C 20.628906 -14.050781 24.109375 -12.9375 27.390625 -10.46875 C 30.617188 -8.039062 32.613281 -5.023438 33.375 -1.421875 C 34.144531 2.171875 33.414062 5.441406 31.1875 8.390625 C 28.96875 11.347656 26.054688 12.96875 22.453125 13.25 C 18.859375 13.539062 15.394531 12.4375 12.0625 9.9375 C 8.601562 7.34375 6.515625 4.285156 5.796875 0.765625 Z M 18.90625 -5.953125 C 17.40625 -5.753906 16.15625 -4.992188 15.15625 -3.671875 C 14.164062 -2.347656 13.765625 -0.957031 13.953125 0.5 C 14.148438 1.96875 14.925781 3.210938 16.28125 4.234375 C 17.582031 5.210938 18.972656 5.585938 20.453125 5.359375 C 21.941406 5.140625 23.171875 4.378906 24.140625 3.078125 C 25.140625 1.753906 25.523438 0.34375 25.296875 -1.15625 C 25.066406 -2.664062 24.328125 -3.890625 23.078125 -4.828125 C 21.796875 -5.785156 20.40625 -6.160156 18.90625 -5.953125 Z M 18.90625 -5.953125 "/></g></g></g><g fill="#ede3c0" fill-opacity="1"><g transform="translate(773.713482, 200.656376)"><g><path d="M 5.796875 0.765625 C 5.078125 -2.742188 5.835938 -5.988281 8.078125 -8.96875 C 10.316406 -11.957031 13.273438 -13.570312 16.953125 -13.8125 C 20.628906 -14.050781 24.109375 -12.9375 27.390625 -10.46875 C 30.617188 -8.039062 32.613281 -5.023438 33.375 -1.421875 C 34.144531 2.171875 33.414062 5.441406 31.1875 8.390625 C 28.96875 11.347656 26.054688 12.96875 22.453125 13.25 C 18.859375 13.539062 15.394531 12.4375 12.0625 9.9375 C 8.601562 7.34375 6.515625 4.285156 5.796875 0.765625 Z M 18.90625 -5.953125 C 17.40625 -5.753906 16.15625 -4.992188 15.15625 -3.671875 C 14.164062 -2.347656 13.765625 -0.957031 13.953125 0.5 C 14.148438 1.96875 14.925781 3.210938 16.28125 4.234375 C 17.582031 5.210938 18.972656 5.585938 20.453125 5.359375 C 21.941406 5.140625 23.171875 4.378906 24.140625 3.078125 C 25.140625 1.753906 25.523438 0.34375 25.296875 -1.15625 C 25.066406 -2.664062 24.328125 -3.890625 23.078125 -4.828125 C 21.796875 -5.785156 20.40625 -6.160156 18.90625 -5.953125 Z M 18.90625 -5.953125 "/></g></g></g><g fill="#ede3c0" fill-opacity="1"><g transform="translate(745.46258, 214.498034)"><g><path d="M 5.796875 0.765625 C 5.078125 -2.742188 5.835938 -5.988281 8.078125 -8.96875 C 10.316406 -11.957031 13.273438 -13.570312 16.953125 -13.8125 C 20.628906 -14.050781 24.109375 -12.9375 27.390625 -10.46875 C 30.617188 -8.039062 32.613281 -5.023438 33.375 -1.421875 C 34.144531 2.171875 33.414062 5.441406 31.1875 8.390625 C 28.96875 11.347656 26.054688 12.96875 22.453125 13.25 C 18.859375 13.539062 15.394531 12.4375 12.0625 9.9375 C 8.601562 7.34375 6.515625 4.285156 5.796875 0.765625 Z M 18.90625 -5.953125 C 17.40625 -5.753906 16.15625 -4.992188 15.15625 -3.671875 C 14.164062 -2.347656 13.765625 -0.957031 13.953125 0.5 C 14.148438 1.96875 14.925781 3.210938 16.28125 4.234375 C 17.582031 5.210938 18.972656 5.585938 20.453125 5.359375 C 21.941406 5.140625 23.171875 4.378906 24.140625 3.078125 C 25.140625 1.753906 25.523438 0.34375 25.296875 -1.15625 C 25.066406 -2.664062 24.328125 -3.890625 23.078125 -4.828125 C 21.796875 -5.785156 20.40625 -6.160156 18.90625 -5.953125 Z M 18.90625 -5.953125 "/></g></g></g><g fill="#ede3c0" fill-opacity="1"><g transform="translate(711.787749, 259.328155)"><g><path d="M 5.796875 0.765625 C 5.078125 -2.742188 5.835938 -5.988281 8.078125 -8.96875 C 10.316406 -11.957031 13.273438 -13.570312 16.953125 -13.8125 C 20.628906 -14.050781 24.109375 -12.9375 27.390625 -10.46875 C 30.617188 -8.039062 32.613281 -5.023438 33.375 -1.421875 C 34.144531 2.171875 33.414062 5.441406 31.1875 8.390625 C 28.96875 11.347656 26.054688 12.96875 22.453125 13.25 C 18.859375 13.539062 15.394531 12.4375 12.0625 9.9375 C 8.601562 7.34375 6.515625 4.285156 5.796875 0.765625 Z M 18.90625 -5.953125 C 17.40625 -5.753906 16.15625 -4.992188 15.15625 -3.671875 C 14.164062 -2.347656 13.765625 -0.957031 13.953125 0.5 C 14.148438 1.96875 14.925781 3.210938 16.28125 4.234375 C 17.582031 5.210938 18.972656 5.585938 20.453125 5.359375 C 21.941406 5.140625 23.171875 4.378906 24.140625 3.078125 C 25.140625 1.753906 25.523438 0.34375 25.296875 -1.15625 C 25.066406 -2.664062 24.328125 -3.890625 23.078125 -4.828125 C 21.796875 -5.785156 20.40625 -6.160156 18.90625 -5.953125 Z M 18.90625 -5.953125 "/></g></g></g><g fill="#d0011b" fill-opacity="1"><g transform="translate(717.211701, 228.339681)"><g><path d="M 5.796875 0.765625 C 5.078125 -2.742188 5.835938 -5.988281 8.078125 -8.96875 C 10.316406 -11.957031 13.273438 -13.570312 16.953125 -13.8125 C 20.628906 -14.050781 24.109375 -12.9375 27.390625 -10.46875 C 30.617188 -8.039062 32.613281 -5.023438 33.375 -1.421875 C 34.144531 2.171875 33.414062 5.441406 31.1875 8.390625 C 28.96875 11.347656 26.054688 12.96875 22.453125 13.25 C 18.859375 13.539062 15.394531 12.4375 12.0625 9.9375 C 8.601562 7.34375 6.515625 4.285156 5.796875 0.765625 Z M 18.90625 -5.953125 C 17.40625 -5.753906 16.15625 -4.992188 15.15625 -3.671875 C 14.164062 -2.347656 13.765625 -0.957031 13.953125 0.5 C 14.148438 1.96875 14.925781 3.210938 16.28125 4.234375 C 17.582031 5.210938 18.972656 5.585938 20.453125 5.359375 C 21.941406 5.140625 23.171875 4.378906 24.140625 3.078125 C 25.140625 1.753906 25.523438 0.34375 25.296875 -1.15625 C 25.066406 -2.664062 24.328125 -3.890625 23.078125 -4.828125 C 21.796875 -5.785156 20.40625 -6.160156 18.90625 -5.953125 Z M 18.90625 -5.953125 "/></g></g></g><g fill="#d0011b" fill-opacity="1"><g transform="translate(852.476726, 119.569528)"><g><path d="M 5.796875 0.765625 C 5.078125 -2.742188 5.835938 -5.988281 8.078125 -8.96875 C 10.316406 -11.957031 13.273438 -13.570312 16.953125 -13.8125 C 20.628906 -14.050781 24.109375 -12.9375 27.390625 -10.46875 C 30.617188 -8.039062 32.613281 -5.023438 33.375 -1.421875 C 34.144531 2.171875 33.414062 5.441406 31.1875 8.390625 C 28.96875 11.347656 26.054688 12.96875 22.453125 13.25 C 18.859375 13.539062 15.394531 12.4375 12.0625 9.9375 C 8.601562 7.34375 6.515625 4.285156 5.796875 0.765625 Z M 18.90625 -5.953125 C 17.40625 -5.753906 16.15625 -4.992188 15.15625 -3.671875 C 14.164062 -2.347656 13.765625 -0.957031 13.953125 0.5 C 14.148438 1.96875 14.925781 3.210938 16.28125 4.234375 C 17.582031 5.210938 18.972656 5.585938 20.453125 5.359375 C 21.941406 5.140625 23.171875 4.378906 24.140625 3.078125 C 25.140625 1.753906 25.523438 0.34375 25.296875 -1.15625 C 25.066406 -2.664062 24.328125 -3.890625 23.078125 -4.828125 C 21.796875 -5.785156 20.40625 -6.160156 18.90625 -5.953125 Z M 18.90625 -5.953125 "/></g></g></g><g fill="#d0011b" fill-opacity="1"><g transform="translate(861.866366, 62.20958)"><g><path d="M 5.796875 0.765625 C 5.078125 -2.742188 5.835938 -5.988281 8.078125 -8.96875 C 10.316406 -11.957031 13.273438 -13.570312 16.953125 -13.8125 C 20.628906 -14.050781 24.109375 -12.9375 27.390625 -10.46875 C 30.617188 -8.039062 32.613281 -5.023438 33.375 -1.421875 C 34.144531 2.171875 33.414062 5.441406 31.1875 8.390625 C 28.96875 11.347656 26.054688 12.96875 22.453125 13.25 C 18.859375 13.539062 15.394531 12.4375 12.0625 9.9375 C 8.601562 7.34375 6.515625 4.285156 5.796875 0.765625 Z M 18.90625 -5.953125 C 17.40625 -5.753906 16.15625 -4.992188 15.15625 -3.671875 C 14.164062 -2.347656 13.765625 -0.957031 13.953125 0.5 C 14.148438 1.96875 14.925781 3.210938 16.28125 4.234375 C 17.582031 5.210938 18.972656 5.585938 20.453125 5.359375 C 21.941406 5.140625 23.171875 4.378906 24.140625 3.078125 C 25.140625 1.753906 25.523438 0.34375 25.296875 -1.15625 C 25.066406 -2.664062 24.328125 -3.890625 23.078125 -4.828125 C 21.796875 -5.785156 20.40625 -6.160156 18.90625 -5.953125 Z M 18.90625 -5.953125 "/></g></g></g><g fill="#ede3c0" fill-opacity="1"><g transform="translate(856.74779, 91.453799)"><g><path d="M 5.796875 0.765625 C 5.078125 -2.742188 5.835938 -5.988281 8.078125 -8.96875 C 10.316406 -11.957031 13.273438 -13.570312 16.953125 -13.8125 C 20.628906 -14.050781 24.109375 -12.9375 27.390625 -10.46875 C 30.617188 -8.039062 32.613281 -5.023438 33.375 -1.421875 C 34.144531 2.171875 33.414062 5.441406 31.1875 8.390625 C 28.96875 11.347656 26.054688 12.96875 22.453125 13.25 C 18.859375 13.539062 15.394531 12.4375 12.0625 9.9375 C 8.601562 7.34375 6.515625 4.285156 5.796875 0.765625 Z M 18.90625 -5.953125 C 17.40625 -5.753906 16.15625 -4.992188 15.15625 -3.671875 C 14.164062 -2.347656 13.765625 -0.957031 13.953125 0.5 C 14.148438 1.96875 14.925781 3.210938 16.28125 4.234375 C 17.582031 5.210938 18.972656 5.585938 20.453125 5.359375 C 21.941406 5.140625 23.171875 4.378906 24.140625 3.078125 C 25.140625 1.753906 25.523438 0.34375 25.296875 -1.15625 C 25.066406 -2.664062 24.328125 -3.890625 23.078125 -4.828125 C 21.796875 -5.785156 20.40625 -6.160156 18.90625 -5.953125 Z M 18.90625 -5.953125 "/></g></g></g><g fill="#d0011b" fill-opacity="1"><g transform="translate(884.768029, 46.323323)"><g><path d="M 5.796875 0.765625 C 5.078125 -2.742188 5.835938 -5.988281 8.078125 -8.96875 C 10.316406 -11.957031 13.273438 -13.570312 16.953125 -13.8125 C 20.628906 -14.050781 24.109375 -12.9375 27.390625 -10.46875 C 30.617188 -8.039062 32.613281 -5.023438 33.375 -1.421875 C 34.144531 2.171875 33.414062 5.441406 31.1875 8.390625 C 28.96875 11.347656 26.054688 12.96875 22.453125 13.25 C 18.859375 13.539062 15.394531 12.4375 12.0625 9.9375 C 8.601562 7.34375 6.515625 4.285156 5.796875 0.765625 Z M 18.90625 -5.953125 C 17.40625 -5.753906 16.15625 -4.992188 15.15625 -3.671875 C 14.164062 -2.347656 13.765625 -0.957031 13.953125 0.5 C 14.148438 1.96875 14.925781 3.210938 16.28125 4.234375 C 17.582031 5.210938 18.972656 5.585938 20.453125 5.359375 C 21.941406 5.140625 23.171875 4.378906 24.140625 3.078125 C 25.140625 1.753906 25.523438 0.34375 25.296875 -1.15625 C 25.066406 -2.664062 24.328125 -3.890625 23.078125 -4.828125 C 21.796875 -5.785156 20.40625 -6.160156 18.90625 -5.953125 Z M 18.90625 -5.953125 "/></g></g></g><g fill="#ede3c0" fill-opacity="1"><g transform="translate(904.057852, 151.279981)"><g><path d="M 5.796875 -0.75 C 4.191406 -3.957031 4.082031 -7.289062 5.46875 -10.75 C 6.863281 -14.21875 9.300781 -16.546875 12.78125 -17.734375 C 16.269531 -18.921875 19.921875 -18.75 23.734375 -17.21875 C 27.484375 -15.707031 30.191406 -13.316406 31.859375 -10.046875 C 33.535156 -6.773438 33.6875 -3.425781 32.3125 0 C 30.9375 3.4375 28.539062 5.757812 25.125 6.96875 C 21.71875 8.1875 18.082031 8.019531 14.21875 6.46875 C 10.207031 4.863281 7.398438 2.457031 5.796875 -0.75 Z M 16.703125 -10.640625 C 15.304688 -10.054688 14.300781 -8.992188 13.6875 -7.453125 C 13.070312 -5.921875 13.046875 -4.476562 13.609375 -3.125 C 14.171875 -1.769531 15.238281 -0.773438 16.8125 -0.140625 C 18.320312 0.460938 19.765625 0.46875 21.140625 -0.125 C 22.523438 -0.726562 23.519531 -1.785156 24.125 -3.296875 C 24.738281 -4.828125 24.738281 -6.285156 24.125 -7.671875 C 23.519531 -9.066406 22.488281 -10.054688 21.03125 -10.640625 C 19.539062 -11.234375 18.097656 -11.234375 16.703125 -10.640625 Z M 16.703125 -10.640625 "/></g></g></g><g fill="#ede3c0" fill-opacity="1"><g transform="translate(906.862492, 182.614284)"><g><path d="M 5.796875 -0.75 C 4.191406 -3.957031 4.082031 -7.289062 5.46875 -10.75 C 6.863281 -14.21875 9.300781 -16.546875 12.78125 -17.734375 C 16.269531 -18.921875 19.921875 -18.75 23.734375 -17.21875 C 27.484375 -15.707031 30.191406 -13.316406 31.859375 -10.046875 C 33.535156 -6.773438 33.6875 -3.425781 32.3125 0 C 30.9375 3.4375 28.539062 5.757812 25.125 6.96875 C 21.71875 8.1875 18.082031 8.019531 14.21875 6.46875 C 10.207031 4.863281 7.398438 2.457031 5.796875 -0.75 Z M 16.703125 -10.640625 C 15.304688 -10.054688 14.300781 -8.992188 13.6875 -7.453125 C 13.070312 -5.921875 13.046875 -4.476562 13.609375 -3.125 C 14.171875 -1.769531 15.238281 -0.773438 16.8125 -0.140625 C 18.320312 0.460938 19.765625 0.46875 21.140625 -0.125 C 22.523438 -0.726562 23.519531 -1.785156 24.125 -3.296875 C 24.738281 -4.828125 24.738281 -6.285156 24.125 -7.671875 C 23.519531 -9.066406 22.488281 -10.054688 21.03125 -10.640625 C 19.539062 -11.234375 18.097656 -11.234375 16.703125 -10.640625 Z M 16.703125 -10.640625 "/></g></g></g><g fill="#d0011b" fill-opacity="1"><g transform="translate(883.172093, 203.313872)"><g><path d="M 5.796875 -0.75 C 4.191406 -3.957031 4.082031 -7.289062 5.46875 -10.75 C 6.863281 -14.21875 9.300781 -16.546875 12.78125 -17.734375 C 16.269531 -18.921875 19.921875 -18.75 23.734375 -17.21875 C 27.484375 -15.707031 30.191406 -13.316406 31.859375 -10.046875 C 33.535156 -6.773438 33.6875 -3.425781 32.3125 0 C 30.9375 3.4375 28.539062 5.757812 25.125 6.96875 C 21.71875 8.1875 18.082031 8.019531 14.21875 6.46875 C 10.207031 4.863281 7.398438 2.457031 5.796875 -0.75 Z M 16.703125 -10.640625 C 15.304688 -10.054688 14.300781 -8.992188 13.6875 -7.453125 C 13.070312 -5.921875 13.046875 -4.476562 13.609375 -3.125 C 14.171875 -1.769531 15.238281 -0.773438 16.8125 -0.140625 C 18.320312 0.460938 19.765625 0.46875 21.140625 -0.125 C 22.523438 -0.726562 23.519531 -1.785156 24.125 -3.296875 C 24.738281 -4.828125 24.738281 -6.285156 24.125 -7.671875 C 23.519531 -9.066406 22.488281 -10.054688 21.03125 -10.640625 C 19.539062 -11.234375 18.097656 -11.234375 16.703125 -10.640625 Z M 16.703125 -10.640625 "/></g></g></g><g fill="#ede3c0" fill-opacity="1"><g transform="translate(859.481838, 224.013461)"><g><path d="M 5.796875 -0.75 C 4.191406 -3.957031 4.082031 -7.289062 5.46875 -10.75 C 6.863281 -14.21875 9.300781 -16.546875 12.78125 -17.734375 C 16.269531 -18.921875 19.921875 -18.75 23.734375 -17.21875 C 27.484375 -15.707031 30.191406 -13.316406 31.859375 -10.046875 C 33.535156 -6.773438 33.6875 -3.425781 32.3125 0 C 30.9375 3.4375 28.539062 5.757812 25.125 6.96875 C 21.71875 8.1875 18.082031 8.019531 14.21875 6.46875 C 10.207031 4.863281 7.398438 2.457031 5.796875 -0.75 Z M 16.703125 -10.640625 C 15.304688 -10.054688 14.300781 -8.992188 13.6875 -7.453125 C 13.070312 -5.921875 13.046875 -4.476562 13.609375 -3.125 C 14.171875 -1.769531 15.238281 -0.773438 16.8125 -0.140625 C 18.320312 0.460938 19.765625 0.46875 21.140625 -0.125 C 22.523438 -0.726562 23.519531 -1.785156 24.125 -3.296875 C 24.738281 -4.828125 24.738281 -6.285156 24.125 -7.671875 C 23.519531 -9.066406 22.488281 -10.054688 21.03125 -10.640625 C 19.539062 -11.234375 18.097656 -11.234375 16.703125 -10.640625 Z M 16.703125 -10.640625 "/></g></g></g><g fill="#ede3c0" fill-opacity="1"><g transform="translate(835.791487, 244.713035)"><g><path d="M 5.796875 -0.75 C 4.191406 -3.957031 4.082031 -7.289062 5.46875 -10.75 C 6.863281 -14.21875 9.300781 -16.546875 12.78125 -17.734375 C 16.269531 -18.921875 19.921875 -18.75 23.734375 -17.21875 C 27.484375 -15.707031 30.191406 -13.316406 31.859375 -10.046875 C 33.535156 -6.773438 33.6875 -3.425781 32.3125 0 C 30.9375 3.4375 28.539062 5.757812 25.125 6.96875 C 21.71875 8.1875 18.082031 8.019531 14.21875 6.46875 C 10.207031 4.863281 7.398438 2.457031 5.796875 -0.75 Z M 16.703125 -10.640625 C 15.304688 -10.054688 14.300781 -8.992188 13.6875 -7.453125 C 13.070312 -5.921875 13.046875 -4.476562 13.609375 -3.125 C 14.171875 -1.769531 15.238281 -0.773438 16.8125 -0.140625 C 18.320312 0.460938 19.765625 0.46875 21.140625 -0.125 C 22.523438 -0.726562 23.519531 -1.785156 24.125 -3.296875 C 24.738281 -4.828125 24.738281 -6.285156 24.125 -7.671875 C 23.519531 -9.066406 22.488281 -10.054688 21.03125 -10.640625 C 19.539062 -11.234375 18.097656 -11.234375 16.703125 -10.640625 Z M 16.703125 -10.640625 "/></g></g></g><g fill="#ede3c0" fill-opacity="1"><g transform="translate(814.905824, 296.746933)"><g><path d="M 5.796875 -0.75 C 4.191406 -3.957031 4.082031 -7.289062 5.46875 -10.75 C 6.863281 -14.21875 9.300781 -16.546875 12.78125 -17.734375 C 16.269531 -18.921875 19.921875 -18.75 23.734375 -17.21875 C 27.484375 -15.707031 30.191406 -13.316406 31.859375 -10.046875 C 33.535156 -6.773438 33.6875 -3.425781 32.3125 0 C 30.9375 3.4375 28.539062 5.757812 25.125 6.96875 C 21.71875 8.1875 18.082031 8.019531 14.21875 6.46875 C 10.207031 4.863281 7.398438 2.457031 5.796875 -0.75 Z M 16.703125 -10.640625 C 15.304688 -10.054688 14.300781 -8.992188 13.6875 -7.453125 C 13.070312 -5.921875 13.046875 -4.476562 13.609375 -3.125 C 14.171875 -1.769531 15.238281 -0.773438 16.8125 -0.140625 C 18.320312 0.460938 19.765625 0.46875 21.140625 -0.125 C 22.523438 -0.726562 23.519531 -1.785156 24.125 -3.296875 C 24.738281 -4.828125 24.738281 -6.285156 24.125 -7.671875 C 23.519531 -9.066406 22.488281 -10.054688 21.03125 -10.640625 C 19.539062 -11.234375 18.097656 -11.234375 16.703125 -10.640625 Z M 16.703125 -10.640625 "/></g></g></g><g fill="#d0011b" fill-opacity="1"><g transform="translate(812.101232, 265.412624)"><g><path d="M 5.796875 -0.75 C 4.191406 -3.957031 4.082031 -7.289062 5.46875 -10.75 C 6.863281 -14.21875 9.300781 -16.546875 12.78125 -17.734375 C 16.269531 -18.921875 19.921875 -18.75 23.734375 -17.21875 C 27.484375 -15.707031 30.191406 -13.316406 31.859375 -10.046875 C 33.535156 -6.773438 33.6875 -3.425781 32.3125 0 C 30.9375 3.4375 28.539062 5.757812 25.125 6.96875 C 21.71875 8.1875 18.082031 8.019531 14.21875 6.46875 C 10.207031 4.863281 7.398438 2.457031 5.796875 -0.75 Z M 16.703125 -10.640625 C 15.304688 -10.054688 14.300781 -8.992188 13.6875 -7.453125 C 13.070312 -5.921875 13.046875 -4.476562 13.609375 -3.125 C 14.171875 -1.769531 15.238281 -0.773438 16.8125 -0.140625 C 18.320312 0.460938 19.765625 0.46875 21.140625 -0.125 C 22.523438 -0.726562 23.519531 -1.785156 24.125 -3.296875 C 24.738281 -4.828125 24.738281 -6.285156 24.125 -7.671875 C 23.519531 -9.066406 22.488281 -10.054688 21.03125 -10.640625 C 19.539062 -11.234375 18.097656 -11.234375 16.703125 -10.640625 Z M 16.703125 -10.640625 "/></g></g></g><g fill="#d0011b" fill-opacity="1"><g transform="translate(914.500659, 125.263032)"><g><path d="M 5.796875 -0.75 C 4.191406 -3.957031 4.082031 -7.289062 5.46875 -10.75 C 6.863281 -14.21875 9.300781 -16.546875 12.78125 -17.734375 C 16.269531 -18.921875 19.921875 -18.75 23.734375 -17.21875 C 27.484375 -15.707031 30.191406 -13.316406 31.859375 -10.046875 C 33.535156 -6.773438 33.6875 -3.425781 32.3125 0 C 30.9375 3.4375 28.539062 5.757812 25.125 6.96875 C 21.71875 8.1875 18.082031 8.019531 14.21875 6.46875 C 10.207031 4.863281 7.398438 2.457031 5.796875 -0.75 Z M 16.703125 -10.640625 C 15.304688 -10.054688 14.300781 -8.992188 13.6875 -7.453125 C 13.070312 -5.921875 13.046875 -4.476562 13.609375 -3.125 C 14.171875 -1.769531 15.238281 -0.773438 16.8125 -0.140625 C 18.320312 0.460938 19.765625 0.46875 21.140625 -0.125 C 22.523438 -0.726562 23.519531 -1.785156 24.125 -3.296875 C 24.738281 -4.828125 24.738281 -6.285156 24.125 -7.671875 C 23.519531 -9.066406 22.488281 -10.054688 21.03125 -10.640625 C 19.539062 -11.234375 18.097656 -11.234375 16.703125 -10.640625 Z M 16.703125 -10.640625 "/></g></g></g><g fill="#d0011b" fill-opacity="1"><g transform="translate(908.681355, 67.431677)"><g><path d="M 5.796875 -0.75 C 4.191406 -3.957031 4.082031 -7.289062 5.46875 -10.75 C 6.863281 -14.21875 9.300781 -16.546875 12.78125 -17.734375 C 16.269531 -18.921875 19.921875 -18.75 23.734375 -17.21875 C 27.484375 -15.707031 30.191406 -13.316406 31.859375 -10.046875 C 33.535156 -6.773438 33.6875 -3.425781 32.3125 0 C 30.9375 3.4375 28.539062 5.757812 25.125 6.96875 C 21.71875 8.1875 18.082031 8.019531 14.21875 6.46875 C 10.207031 4.863281 7.398438 2.457031 5.796875 -0.75 Z M 16.703125 -10.640625 C 15.304688 -10.054688 14.300781 -8.992188 13.6875 -7.453125 C 13.070312 -5.921875 13.046875 -4.476562 13.609375 -3.125 C 14.171875 -1.769531 15.238281 -0.773438 16.8125 -0.140625 C 18.320312 0.460938 19.765625 0.46875 21.140625 -0.125 C 22.523438 -0.726562 23.519531 -1.785156 24.125 -3.296875 C 24.738281 -4.828125 24.738281 -6.285156 24.125 -7.671875 C 23.519531 -9.066406 22.488281 -10.054688 21.03125 -10.640625 C 19.539062 -11.234375 18.097656 -11.234375 16.703125 -10.640625 Z M 16.703125 -10.640625 "/></g></g></g><g fill="#ede3c0" fill-opacity="1"><g transform="translate(911.328147, 97.002268)"><g><path d="M 5.796875 -0.75 C 4.191406 -3.957031 4.082031 -7.289062 5.46875 -10.75 C 6.863281 -14.21875 9.300781 -16.546875 12.78125 -17.734375 C 16.269531 -18.921875 19.921875 -18.75 23.734375 -17.21875 C 27.484375 -15.707031 30.191406 -13.316406 31.859375 -10.046875 C 33.535156 -6.773438 33.6875 -3.425781 32.3125 0 C 30.9375 3.4375 28.539062 5.757812 25.125 6.96875 C 21.71875 8.1875 18.082031 8.019531 14.21875 6.46875 C 10.207031 4.863281 7.398438 2.457031 5.796875 -0.75 Z M 16.703125 -10.640625 C 15.304688 -10.054688 14.300781 -8.992188 13.6875 -7.453125 C 13.070312 -5.921875 13.046875 -4.476562 13.609375 -3.125 C 14.171875 -1.769531 15.238281 -0.773438 16.8125 -0.140625 C 18.320312 0.460938 19.765625 0.46875 21.140625 -0.125 C 22.523438 -0.726562 23.519531 -1.785156 24.125 -3.296875 C 24.738281 -4.828125 24.738281 -6.285156 24.125 -7.671875 C 23.519531 -9.066406 22.488281 -10.054688 21.03125 -10.640625 C 19.539062 -11.234375 18.097656 -11.234375 16.703125 -10.640625 Z M 16.703125 -10.640625 "/></g></g></g><g fill="#d0011b" fill-opacity="1"><g transform="translate(926.675139, 46.145898)"><g><path d="M 5.796875 -0.75 C 4.191406 -3.957031 4.082031 -7.289062 5.46875 -10.75 C 6.863281 -14.21875 9.300781 -16.546875 12.78125 -17.734375 C 16.269531 -18.921875 19.921875 -18.75 23.734375 -17.21875 C 27.484375 -15.707031 30.191406 -13.316406 31.859375 -10.046875 C 33.535156 -6.773438 33.6875 -3.425781 32.3125 0 C 30.9375 3.4375 28.539062 5.757812 25.125 6.96875 C 21.71875 8.1875 18.082031 8.019531 14.21875 6.46875 C 10.207031 4.863281 7.398438 2.457031 5.796875 -0.75 Z M 16.703125 -10.640625 C 15.304688 -10.054688 14.300781 -8.992188 13.6875 -7.453125 C 13.070312 -5.921875 13.046875 -4.476562 13.609375 -3.125 C 14.171875 -1.769531 15.238281 -0.773438 16.8125 -0.140625 C 18.320312 0.460938 19.765625 0.46875 21.140625 -0.125 C 22.523438 -0.726562 23.519531 -1.785156 24.125 -3.296875 C 24.738281 -4.828125 24.738281 -6.285156 24.125 -7.671875 C 23.519531 -9.066406 22.488281 -10.054688 21.03125 -10.640625 C 19.539062 -11.234375 18.097656 -11.234375 16.703125 -10.640625 Z M 16.703125 -10.640625 "/></g></g></g><g fill="#ede3c0" fill-opacity="1"><g transform="translate(681.370274, 315.500826)"><g><path d="M 5.59375 1.703125 C 5.46875 -1.878906 6.753906 -4.957031 9.453125 -7.53125 C 12.148438 -10.101562 15.328125 -11.207031 18.984375 -10.84375 C 22.640625 -10.476562 25.882812 -8.816406 28.71875 -5.859375 C 31.507812 -2.929688 32.988281 0.363281 33.15625 4.03125 C 33.332031 7.707031 32.082031 10.820312 29.40625 13.375 C 26.726562 15.925781 23.585938 17.050781 19.984375 16.75 C 16.378906 16.445312 13.140625 14.785156 10.265625 11.765625 C 7.273438 8.640625 5.71875 5.285156 5.59375 1.703125 Z M 19.625 -2.78125 C 18.113281 -2.832031 16.757812 -2.285156 15.5625 -1.140625 C 14.363281 0.00390625 13.738281 1.3125 13.6875 2.78125 C 13.632812 4.257812 14.195312 5.613281 15.375 6.84375 C 16.5 8.019531 17.804688 8.617188 19.296875 8.640625 C 20.796875 8.660156 22.132812 8.109375 23.3125 6.984375 C 24.507812 5.835938 25.117188 4.503906 25.140625 2.984375 C 25.171875 1.472656 24.644531 0.148438 23.5625 -0.984375 C 22.457031 -2.140625 21.144531 -2.738281 19.625 -2.78125 Z M 19.625 -2.78125 "/></g></g></g><g fill="#d0011b" fill-opacity="1"><g transform="translate(691.783658, 285.814714)"><g><path d="M 5.59375 1.703125 C 5.46875 -1.878906 6.753906 -4.957031 9.453125 -7.53125 C 12.148438 -10.101562 15.328125 -11.207031 18.984375 -10.84375 C 22.640625 -10.476562 25.882812 -8.816406 28.71875 -5.859375 C 31.507812 -2.929688 32.988281 0.363281 33.15625 4.03125 C 33.332031 7.707031 32.082031 10.820312 29.40625 13.375 C 26.726562 15.925781 23.585938 17.050781 19.984375 16.75 C 16.378906 16.445312 13.140625 14.785156 10.265625 11.765625 C 7.273438 8.640625 5.71875 5.285156 5.59375 1.703125 Z M 19.625 -2.78125 C 18.113281 -2.832031 16.757812 -2.285156 15.5625 -1.140625 C 14.363281 0.00390625 13.738281 1.3125 13.6875 2.78125 C 13.632812 4.257812 14.195312 5.613281 15.375 6.84375 C 16.5 8.019531 17.804688 8.617188 19.296875 8.640625 C 20.796875 8.660156 22.132812 8.109375 23.3125 6.984375 C 24.507812 5.835938 25.117188 4.503906 25.140625 2.984375 C 25.171875 1.472656 24.644531 0.148438 23.5625 -0.984375 C 22.457031 -2.140625 21.144531 -2.738281 19.625 -2.78125 Z M 19.625 -2.78125 "/></g></g></g><g fill="#ede3c0" fill-opacity="1"><g transform="translate(645.678532, 359.309905)"><g><path d="M 5.59375 1.703125 C 5.46875 -1.878906 6.753906 -4.957031 9.453125 -7.53125 C 12.148438 -10.101562 15.328125 -11.207031 18.984375 -10.84375 C 22.640625 -10.476562 25.882812 -8.816406 28.71875 -5.859375 C 31.507812 -2.929688 32.988281 0.363281 33.15625 4.03125 C 33.332031 7.707031 32.082031 10.820312 29.40625 13.375 C 26.726562 15.925781 23.585938 17.050781 19.984375 16.75 C 16.378906 16.445312 13.140625 14.785156 10.265625 11.765625 C 7.273438 8.640625 5.71875 5.285156 5.59375 1.703125 Z M 19.625 -2.78125 C 18.113281 -2.832031 16.757812 -2.285156 15.5625 -1.140625 C 14.363281 0.00390625 13.738281 1.3125 13.6875 2.78125 C 13.632812 4.257812 14.195312 5.613281 15.375 6.84375 C 16.5 8.019531 17.804688 8.617188 19.296875 8.640625 C 20.796875 8.660156 22.132812 8.109375 23.3125 6.984375 C 24.507812 5.835938 25.117188 4.503906 25.140625 2.984375 C 25.171875 1.472656 24.644531 0.148438 23.5625 -0.984375 C 22.457031 -2.140625 21.144531 -2.738281 19.625 -2.78125 Z M 19.625 -2.78125 "/></g></g></g><g fill="#ede3c0" fill-opacity="1"><g transform="translate(670.956747, 345.186907)"><g><path d="M 5.59375 1.703125 C 5.46875 -1.878906 6.753906 -4.957031 9.453125 -7.53125 C 12.148438 -10.101562 15.328125 -11.207031 18.984375 -10.84375 C 22.640625 -10.476562 25.882812 -8.816406 28.71875 -5.859375 C 31.507812 -2.929688 32.988281 0.363281 33.15625 4.03125 C 33.332031 7.707031 32.082031 10.820312 29.40625 13.375 C 26.726562 15.925781 23.585938 17.050781 19.984375 16.75 C 16.378906 16.445312 13.140625 14.785156 10.265625 11.765625 C 7.273438 8.640625 5.71875 5.285156 5.59375 1.703125 Z M 19.625 -2.78125 C 18.113281 -2.832031 16.757812 -2.285156 15.5625 -1.140625 C 14.363281 0.00390625 13.738281 1.3125 13.6875 2.78125 C 13.632812 4.257812 14.195312 5.613281 15.375 6.84375 C 16.5 8.019531 17.804688 8.617188 19.296875 8.640625 C 20.796875 8.660156 22.132812 8.109375 23.3125 6.984375 C 24.507812 5.835938 25.117188 4.503906 25.140625 2.984375 C 25.171875 1.472656 24.644531 0.148438 23.5625 -0.984375 C 22.457031 -2.140625 21.144531 -2.738281 19.625 -2.78125 Z M 19.625 -2.78125 "/></g></g></g><g fill="#ede3c0" fill-opacity="1"><g transform="translate(595.272919, 387.713839)"><g><path d="M 5.59375 1.703125 C 5.46875 -1.878906 6.753906 -4.957031 9.453125 -7.53125 C 12.148438 -10.101562 15.328125 -11.207031 18.984375 -10.84375 C 22.640625 -10.476562 25.882812 -8.816406 28.71875 -5.859375 C 31.507812 -2.929688 32.988281 0.363281 33.15625 4.03125 C 33.332031 7.707031 32.082031 10.820312 29.40625 13.375 C 26.726562 15.925781 23.585938 17.050781 19.984375 16.75 C 16.378906 16.445312 13.140625 14.785156 10.265625 11.765625 C 7.273438 8.640625 5.71875 5.285156 5.59375 1.703125 Z M 19.625 -2.78125 C 18.113281 -2.832031 16.757812 -2.285156 15.5625 -1.140625 C 14.363281 0.00390625 13.738281 1.3125 13.6875 2.78125 C 13.632812 4.257812 14.195312 5.613281 15.375 6.84375 C 16.5 8.019531 17.804688 8.617188 19.296875 8.640625 C 20.796875 8.660156 22.132812 8.109375 23.3125 6.984375 C 24.507812 5.835938 25.117188 4.503906 25.140625 2.984375 C 25.171875 1.472656 24.644531 0.148438 23.5625 -0.984375 C 22.457031 -2.140625 21.144531 -2.738281 19.625 -2.78125 Z M 19.625 -2.78125 "/></g></g></g><g fill="#ede3c0" fill-opacity="1"><g transform="translate(615.545933, 368.350482)"><g><path d="M 5.59375 1.703125 C 5.46875 -1.878906 6.753906 -4.957031 9.453125 -7.53125 C 12.148438 -10.101562 15.328125 -11.207031 18.984375 -10.84375 C 22.640625 -10.476562 25.882812 -8.816406 28.71875 -5.859375 C 31.507812 -2.929688 32.988281 0.363281 33.15625 4.03125 C 33.332031 7.707031 32.082031 10.820312 29.40625 13.375 C 26.726562 15.925781 23.585938 17.050781 19.984375 16.75 C 16.378906 16.445312 13.140625 14.785156 10.265625 11.765625 C 7.273438 8.640625 5.71875 5.285156 5.59375 1.703125 Z M 19.625 -2.78125 C 18.113281 -2.832031 16.757812 -2.285156 15.5625 -1.140625 C 14.363281 0.00390625 13.738281 1.3125 13.6875 2.78125 C 13.632812 4.257812 14.195312 5.613281 15.375 6.84375 C 16.5 8.019531 17.804688 8.617188 19.296875 8.640625 C 20.796875 8.660156 22.132812 8.109375 23.3125 6.984375 C 24.507812 5.835938 25.117188 4.503906 25.140625 2.984375 C 25.171875 1.472656 24.644531 0.148438 23.5625 -0.984375 C 22.457031 -2.140625 21.144531 -2.738281 19.625 -2.78125 Z M 19.625 -2.78125 "/></g></g></g><g fill="#ede3c0" fill-opacity="1"><g transform="translate(584.859463, 417.399951)"><g><path d="M 5.59375 1.703125 C 5.46875 -1.878906 6.753906 -4.957031 9.453125 -7.53125 C 12.148438 -10.101562 15.328125 -11.207031 18.984375 -10.84375 C 22.640625 -10.476562 25.882812 -8.816406 28.71875 -5.859375 C 31.507812 -2.929688 32.988281 0.363281 33.15625 4.03125 C 33.332031 7.707031 32.082031 10.820312 29.40625 13.375 C 26.726562 15.925781 23.585938 17.050781 19.984375 16.75 C 16.378906 16.445312 13.140625 14.785156 10.265625 11.765625 C 7.273438 8.640625 5.71875 5.285156 5.59375 1.703125 Z M 19.625 -2.78125 C 18.113281 -2.832031 16.757812 -2.285156 15.5625 -1.140625 C 14.363281 0.00390625 13.738281 1.3125 13.6875 2.78125 C 13.632812 4.257812 14.195312 5.613281 15.375 6.84375 C 16.5 8.019531 17.804688 8.617188 19.296875 8.640625 C 20.796875 8.660156 22.132812 8.109375 23.3125 6.984375 C 24.507812 5.835938 25.117188 4.503906 25.140625 2.984375 C 25.171875 1.472656 24.644531 0.148438 23.5625 -0.984375 C 22.457031 -2.140625 21.144531 -2.738281 19.625 -2.78125 Z M 19.625 -2.78125 "/></g></g></g><g fill="#ede3c0" fill-opacity="1"><g transform="translate(795.680043, 354.382912)"><g><path d="M 5.8125 -0.734375 C 4.226562 -3.953125 4.140625 -7.285156 5.546875 -10.734375 C 6.953125 -14.191406 9.394531 -16.5 12.875 -17.65625 C 16.363281 -18.820312 20.007812 -18.628906 23.8125 -17.078125 C 27.550781 -15.546875 30.25 -13.144531 31.90625 -9.875 C 33.570312 -6.601562 33.707031 -3.253906 32.3125 0.171875 C 30.914062 3.597656 28.507812 5.910156 25.09375 7.109375 C 21.675781 8.304688 18.039062 8.117188 14.1875 6.546875 C 10.1875 4.910156 7.394531 2.484375 5.8125 -0.734375 Z M 16.765625 -10.5625 C 15.367188 -9.976562 14.359375 -8.921875 13.734375 -7.390625 C 13.109375 -5.859375 13.070312 -4.410156 13.625 -3.046875 C 14.175781 -1.691406 15.238281 -0.691406 16.8125 -0.046875 C 18.320312 0.566406 19.765625 0.578125 21.140625 -0.015625 C 22.523438 -0.609375 23.523438 -1.65625 24.140625 -3.15625 C 24.765625 -4.6875 24.773438 -6.148438 24.171875 -7.546875 C 23.566406 -8.941406 22.539062 -9.9375 21.09375 -10.53125 C 19.613281 -11.132812 18.171875 -11.144531 16.765625 -10.5625 Z M 16.765625 -10.5625 "/></g></g></g><g fill="#ede3c0" fill-opacity="1"><g transform="translate(793.044843, 323.03391)"><g><path d="M 5.8125 -0.734375 C 4.226562 -3.953125 4.140625 -7.285156 5.546875 -10.734375 C 6.953125 -14.191406 9.394531 -16.5 12.875 -17.65625 C 16.363281 -18.820312 20.007812 -18.628906 23.8125 -17.078125 C 27.550781 -15.546875 30.25 -13.144531 31.90625 -9.875 C 33.570312 -6.601562 33.707031 -3.253906 32.3125 0.171875 C 30.914062 3.597656 28.507812 5.910156 25.09375 7.109375 C 21.675781 8.304688 18.039062 8.117188 14.1875 6.546875 C 10.1875 4.910156 7.394531 2.484375 5.8125 -0.734375 Z M 16.765625 -10.5625 C 15.367188 -9.976562 14.359375 -8.921875 13.734375 -7.390625 C 13.109375 -5.859375 13.070312 -4.410156 13.625 -3.046875 C 14.175781 -1.691406 15.238281 -0.691406 16.8125 -0.046875 C 18.320312 0.566406 19.765625 0.578125 21.140625 -0.015625 C 22.523438 -0.609375 23.523438 -1.65625 24.140625 -3.15625 C 24.765625 -4.6875 24.773438 -6.148438 24.171875 -7.546875 C 23.566406 -8.941406 22.539062 -9.9375 21.09375 -10.53125 C 19.613281 -11.132812 18.171875 -11.144531 16.765625 -10.5625 Z M 16.765625 -10.5625 "/></g></g></g><g fill="#d0011b" fill-opacity="1"><g transform="translate(781.02142, 408.956368)"><g><path d="M 5.8125 -0.734375 C 4.226562 -3.953125 4.140625 -7.285156 5.546875 -10.734375 C 6.953125 -14.191406 9.394531 -16.5 12.875 -17.65625 C 16.363281 -18.820312 20.007812 -18.628906 23.8125 -17.078125 C 27.550781 -15.546875 30.25 -13.144531 31.90625 -9.875 C 33.570312 -6.601562 33.707031 -3.253906 32.3125 0.171875 C 30.914062 3.597656 28.507812 5.910156 25.09375 7.109375 C 21.675781 8.304688 18.039062 8.117188 14.1875 6.546875 C 10.1875 4.910156 7.394531 2.484375 5.8125 -0.734375 Z M 16.765625 -10.5625 C 15.367188 -9.976562 14.359375 -8.921875 13.734375 -7.390625 C 13.109375 -5.859375 13.070312 -4.410156 13.625 -3.046875 C 14.175781 -1.691406 15.238281 -0.691406 16.8125 -0.046875 C 18.320312 0.566406 19.765625 0.578125 21.140625 -0.015625 C 22.523438 -0.609375 23.523438 -1.65625 24.140625 -3.15625 C 24.765625 -4.6875 24.773438 -6.148438 24.171875 -7.546875 C 23.566406 -8.941406 22.539062 -9.9375 21.09375 -10.53125 C 19.613281 -11.132812 18.171875 -11.144531 16.765625 -10.5625 Z M 16.765625 -10.5625 "/></g></g></g><g fill="#ede3c0" fill-opacity="1"><g transform="translate(798.315171, 385.731946)"><g><path d="M 5.8125 -0.734375 C 4.226562 -3.953125 4.140625 -7.285156 5.546875 -10.734375 C 6.953125 -14.191406 9.394531 -16.5 12.875 -17.65625 C 16.363281 -18.820312 20.007812 -18.628906 23.8125 -17.078125 C 27.550781 -15.546875 30.25 -13.144531 31.90625 -9.875 C 33.570312 -6.601562 33.707031 -3.253906 32.3125 0.171875 C 30.914062 3.597656 28.507812 5.910156 25.09375 7.109375 C 21.675781 8.304688 18.039062 8.117188 14.1875 6.546875 C 10.1875 4.910156 7.394531 2.484375 5.8125 -0.734375 Z M 16.765625 -10.5625 C 15.367188 -9.976562 14.359375 -8.921875 13.734375 -7.390625 C 13.109375 -5.859375 13.070312 -4.410156 13.625 -3.046875 C 14.175781 -1.691406 15.238281 -0.691406 16.8125 -0.046875 C 18.320312 0.566406 19.765625 0.578125 21.140625 -0.015625 C 22.523438 -0.609375 23.523438 -1.65625 24.140625 -3.15625 C 24.765625 -4.6875 24.773438 -6.148438 24.171875 -7.546875 C 23.566406 -8.941406 22.539062 -9.9375 21.09375 -10.53125 C 19.613281 -11.132812 18.171875 -11.144531 16.765625 -10.5625 Z M 16.765625 -10.5625 "/></g></g></g><g fill="#d0011b" fill-opacity="1"><g transform="translate(746.636142, 455.487659)"><g><path d="M 5.8125 -0.734375 C 4.226562 -3.953125 4.140625 -7.285156 5.546875 -10.734375 C 6.953125 -14.191406 9.394531 -16.5 12.875 -17.65625 C 16.363281 -18.820312 20.007812 -18.628906 23.8125 -17.078125 C 27.550781 -15.546875 30.25 -13.144531 31.90625 -9.875 C 33.570312 -6.601562 33.707031 -3.253906 32.3125 0.171875 C 30.914062 3.597656 28.507812 5.910156 25.09375 7.109375 C 21.675781 8.304688 18.039062 8.117188 14.1875 6.546875 C 10.1875 4.910156 7.394531 2.484375 5.8125 -0.734375 Z M 16.765625 -10.5625 C 15.367188 -9.976562 14.359375 -8.921875 13.734375 -7.390625 C 13.109375 -5.859375 13.070312 -4.410156 13.625 -3.046875 C 14.175781 -1.691406 15.238281 -0.691406 16.8125 -0.046875 C 18.320312 0.566406 19.765625 0.578125 21.140625 -0.015625 C 22.523438 -0.609375 23.523438 -1.65625 24.140625 -3.15625 C 24.765625 -4.6875 24.773438 -6.148438 24.171875 -7.546875 C 23.566406 -8.941406 22.539062 -9.9375 21.09375 -10.53125 C 19.613281 -11.132812 18.171875 -11.144531 16.765625 -10.5625 Z M 16.765625 -10.5625 "/></g></g></g><g fill="#d0011b" fill-opacity="1"><g transform="translate(757.219565, 429.527549)"><g><path d="M 5.8125 -0.734375 C 4.226562 -3.953125 4.140625 -7.285156 5.546875 -10.734375 C 6.953125 -14.191406 9.394531 -16.5 12.875 -17.65625 C 16.363281 -18.820312 20.007812 -18.628906 23.8125 -17.078125 C 27.550781 -15.546875 30.25 -13.144531 31.90625 -9.875 C 33.570312 -6.601562 33.707031 -3.253906 32.3125 0.171875 C 30.914062 3.597656 28.507812 5.910156 25.09375 7.109375 C 21.675781 8.304688 18.039062 8.117188 14.1875 6.546875 C 10.1875 4.910156 7.394531 2.484375 5.8125 -0.734375 Z M 16.765625 -10.5625 C 15.367188 -9.976562 14.359375 -8.921875 13.734375 -7.390625 C 13.109375 -5.859375 13.070312 -4.410156 13.625 -3.046875 C 14.175781 -1.691406 15.238281 -0.691406 16.8125 -0.046875 C 18.320312 0.566406 19.765625 0.578125 21.140625 -0.015625 C 22.523438 -0.609375 23.523438 -1.65625 24.140625 -3.15625 C 24.765625 -4.6875 24.773438 -6.148438 24.171875 -7.546875 C 23.566406 -8.941406 22.539062 -9.9375 21.09375 -10.53125 C 19.613281 -11.132812 18.171875 -11.144531 16.765625 -10.5625 Z M 16.765625 -10.5625 "/></g></g></g><g fill="#d0011b" fill-opacity="1"><g transform="translate(749.271341, 486.836625)"><g><path d="M 5.8125 -0.734375 C 4.226562 -3.953125 4.140625 -7.285156 5.546875 -10.734375 C 6.953125 -14.191406 9.394531 -16.5 12.875 -17.65625 C 16.363281 -18.820312 20.007812 -18.628906 23.8125 -17.078125 C 27.550781 -15.546875 30.25 -13.144531 31.90625 -9.875 C 33.570312 -6.601562 33.707031 -3.253906 32.3125 0.171875 C 30.914062 3.597656 28.507812 5.910156 25.09375 7.109375 C 21.675781 8.304688 18.039062 8.117188 14.1875 6.546875 C 10.1875 4.910156 7.394531 2.484375 5.8125 -0.734375 Z M 16.765625 -10.5625 C 15.367188 -9.976562 14.359375 -8.921875 13.734375 -7.390625 C 13.109375 -5.859375 13.070312 -4.410156 13.625 -3.046875 C 14.175781 -1.691406 15.238281 -0.691406 16.8125 -0.046875 C 18.320312 0.566406 19.765625 0.578125 21.140625 -0.015625 C 22.523438 -0.609375 23.523438 -1.65625 24.140625 -3.15625 C 24.765625 -4.6875 24.773438 -6.148438 24.171875 -7.546875 C 23.566406 -8.941406 22.539062 -9.9375 21.09375 -10.53125 C 19.613281 -11.132812 18.171875 -11.144531 16.765625 -10.5625 Z M 16.765625 -10.5625 "/></g></g></g><g fill="#ede3c0" fill-opacity="1"><g transform="translate(724.963878, 527.743874)"><g><path d="M 4.453125 3.78125 C 5.753906 0.445312 8.148438 -1.867188 11.640625 -3.171875 C 15.140625 -4.472656 18.5 -4.234375 21.71875 -2.453125 C 24.945312 -0.671875 27.273438 2.140625 28.703125 5.984375 C 30.109375 9.773438 30.160156 13.390625 28.859375 16.828125 C 27.566406 20.265625 25.1875 22.628906 21.71875 23.921875 C 18.25 25.210938 14.921875 25.003906 11.734375 23.296875 C 8.546875 21.585938 6.226562 18.78125 4.78125 14.875 C 3.269531 10.820312 3.160156 7.125 4.453125 3.78125 Z M 19.125 5.203125 C 17.75 4.566406 16.285156 4.535156 14.734375 5.109375 C 13.179688 5.679688 12.085938 6.632812 11.453125 7.96875 C 10.828125 9.3125 10.8125 10.78125 11.40625 12.375 C 11.96875 13.894531 12.929688 14.957031 14.296875 15.5625 C 15.671875 16.175781 17.117188 16.203125 18.640625 15.640625 C 20.191406 15.066406 21.28125 14.082031 21.90625 12.6875 C 22.53125 11.300781 22.570312 9.878906 22.03125 8.421875 C 21.46875 6.910156 20.5 5.835938 19.125 5.203125 Z M 19.125 5.203125 "/></g></g></g><g fill="#ede3c0" fill-opacity="1"><g transform="translate(746.274125, 504.601395)"><g><path d="M 4.453125 3.78125 C 5.753906 0.445312 8.148438 -1.867188 11.640625 -3.171875 C 15.140625 -4.472656 18.5 -4.234375 21.71875 -2.453125 C 24.945312 -0.671875 27.273438 2.140625 28.703125 5.984375 C 30.109375 9.773438 30.160156 13.390625 28.859375 16.828125 C 27.566406 20.265625 25.1875 22.628906 21.71875 23.921875 C 18.25 25.210938 14.921875 25.003906 11.734375 23.296875 C 8.546875 21.585938 6.226562 18.78125 4.78125 14.875 C 3.269531 10.820312 3.160156 7.125 4.453125 3.78125 Z M 19.125 5.203125 C 17.75 4.566406 16.285156 4.535156 14.734375 5.109375 C 13.179688 5.679688 12.085938 6.632812 11.453125 7.96875 C 10.828125 9.3125 10.8125 10.78125 11.40625 12.375 C 11.96875 13.894531 12.929688 14.957031 14.296875 15.5625 C 15.671875 16.175781 17.117188 16.203125 18.640625 15.640625 C 20.191406 15.066406 21.28125 14.082031 21.90625 12.6875 C 22.53125 11.300781 22.570312 9.878906 22.03125 8.421875 C 21.46875 6.910156 20.5 5.835938 19.125 5.203125 Z M 19.125 5.203125 "/></g></g></g><g fill="#ede3c0" fill-opacity="1"><g transform="translate(674.850057, 553.853953)"><g><path d="M 4.453125 3.78125 C 5.753906 0.445312 8.148438 -1.867188 11.640625 -3.171875 C 15.140625 -4.472656 18.5 -4.234375 21.71875 -2.453125 C 24.945312 -0.671875 27.273438 2.140625 28.703125 5.984375 C 30.109375 9.773438 30.160156 13.390625 28.859375 16.828125 C 27.566406 20.265625 25.1875 22.628906 21.71875 23.921875 C 18.25 25.210938 14.921875 25.003906 11.734375 23.296875 C 8.546875 21.585938 6.226562 18.78125 4.78125 14.875 C 3.269531 10.820312 3.160156 7.125 4.453125 3.78125 Z M 19.125 5.203125 C 17.75 4.566406 16.285156 4.535156 14.734375 5.109375 C 13.179688 5.679688 12.085938 6.632812 11.453125 7.96875 C 10.828125 9.3125 10.8125 10.78125 11.40625 12.375 C 11.96875 13.894531 12.929688 14.957031 14.296875 15.5625 C 15.671875 16.175781 17.117188 16.203125 18.640625 15.640625 C 20.191406 15.066406 21.28125 14.082031 21.90625 12.6875 C 22.53125 11.300781 22.570312 9.878906 22.03125 8.421875 C 21.46875 6.910156 20.5 5.835938 19.125 5.203125 Z M 19.125 5.203125 "/></g></g></g><g fill="#ede3c0" fill-opacity="1"><g transform="translate(703.653511, 550.886353)"><g><path d="M 4.453125 3.78125 C 5.753906 0.445312 8.148438 -1.867188 11.640625 -3.171875 C 15.140625 -4.472656 18.5 -4.234375 21.71875 -2.453125 C 24.945312 -0.671875 27.273438 2.140625 28.703125 5.984375 C 30.109375 9.773438 30.160156 13.390625 28.859375 16.828125 C 27.566406 20.265625 25.1875 22.628906 21.71875 23.921875 C 18.25 25.210938 14.921875 25.003906 11.734375 23.296875 C 8.546875 21.585938 6.226562 18.78125 4.78125 14.875 C 3.269531 10.820312 3.160156 7.125 4.453125 3.78125 Z M 19.125 5.203125 C 17.75 4.566406 16.285156 4.535156 14.734375 5.109375 C 13.179688 5.679688 12.085938 6.632812 11.453125 7.96875 C 10.828125 9.3125 10.8125 10.78125 11.40625 12.375 C 11.96875 13.894531 12.929688 14.957031 14.296875 15.5625 C 15.671875 16.175781 17.117188 16.203125 18.640625 15.640625 C 20.191406 15.066406 21.28125 14.082031 21.90625 12.6875 C 22.53125 11.300781 22.570312 9.878906 22.03125 8.421875 C 21.46875 6.910156 20.5 5.835938 19.125 5.203125 Z M 19.125 5.203125 "/></g></g></g><g fill="#ede3c0" fill-opacity="1"><g transform="translate(617.319132, 559.993992)"><g><path d="M 4.453125 3.78125 C 5.753906 0.445312 8.148438 -1.867188 11.640625 -3.171875 C 15.140625 -4.472656 18.5 -4.234375 21.71875 -2.453125 C 24.945312 -0.671875 27.273438 2.140625 28.703125 5.984375 C 30.109375 9.773438 30.160156 13.390625 28.859375 16.828125 C 27.566406 20.265625 25.1875 22.628906 21.71875 23.921875 C 18.25 25.210938 14.921875 25.003906 11.734375 23.296875 C 8.546875 21.585938 6.226562 18.78125 4.78125 14.875 C 3.269531 10.820312 3.160156 7.125 4.453125 3.78125 Z M 19.125 5.203125 C 17.75 4.566406 16.285156 4.535156 14.734375 5.109375 C 13.179688 5.679688 12.085938 6.632812 11.453125 7.96875 C 10.828125 9.3125 10.8125 10.78125 11.40625 12.375 C 11.96875 13.894531 12.929688 14.957031 14.296875 15.5625 C 15.671875 16.175781 17.117188 16.203125 18.640625 15.640625 C 20.191406 15.066406 21.28125 14.082031 21.90625 12.6875 C 22.53125 11.300781 22.570312 9.878906 22.03125 8.421875 C 21.46875 6.910156 20.5 5.835938 19.125 5.203125 Z M 19.125 5.203125 "/></g></g></g><g fill="#ede3c0" fill-opacity="1"><g transform="translate(643.599538, 550.233169)"><g><path d="M 4.453125 3.78125 C 5.753906 0.445312 8.148438 -1.867188 11.640625 -3.171875 C 15.140625 -4.472656 18.5 -4.234375 21.71875 -2.453125 C 24.945312 -0.671875 27.273438 2.140625 28.703125 5.984375 C 30.109375 9.773438 30.160156 13.390625 28.859375 16.828125 C 27.566406 20.265625 25.1875 22.628906 21.71875 23.921875 C 18.25 25.210938 14.921875 25.003906 11.734375 23.296875 C 8.546875 21.585938 6.226562 18.78125 4.78125 14.875 C 3.269531 10.820312 3.160156 7.125 4.453125 3.78125 Z M 19.125 5.203125 C 17.75 4.566406 16.285156 4.535156 14.734375 5.109375 C 13.179688 5.679688 12.085938 6.632812 11.453125 7.96875 C 10.828125 9.3125 10.8125 10.78125 11.40625 12.375 C 11.96875 13.894531 12.929688 14.957031 14.296875 15.5625 C 15.671875 16.175781 17.117188 16.203125 18.640625 15.640625 C 20.191406 15.066406 21.28125 14.082031 21.90625 12.6875 C 22.53125 11.300781 22.570312 9.878906 22.03125 8.421875 C 21.46875 6.910156 20.5 5.835938 19.125 5.203125 Z M 19.125 5.203125 "/></g></g></g><g fill="#ede3c0" fill-opacity="1"><g transform="translate(596.008765, 583.136471)"><g><path d="M 4.453125 3.78125 C 5.753906 0.445312 8.148438 -1.867188 11.640625 -3.171875 C 15.140625 -4.472656 18.5 -4.234375 21.71875 -2.453125 C 24.945312 -0.671875 27.273438 2.140625 28.703125 5.984375 C 30.109375 9.773438 30.160156 13.390625 28.859375 16.828125 C 27.566406 20.265625 25.1875 22.628906 21.71875 23.921875 C 18.25 25.210938 14.921875 25.003906 11.734375 23.296875 C 8.546875 21.585938 6.226562 18.78125 4.78125 14.875 C 3.269531 10.820312 3.160156 7.125 4.453125 3.78125 Z M 19.125 5.203125 C 17.75 4.566406 16.285156 4.535156 14.734375 5.109375 C 13.179688 5.679688 12.085938 6.632812 11.453125 7.96875 C 10.828125 9.3125 10.8125 10.78125 11.40625 12.375 C 11.96875 13.894531 12.929688 14.957031 14.296875 15.5625 C 15.671875 16.175781 17.117188 16.203125 18.640625 15.640625 C 20.191406 15.066406 21.28125 14.082031 21.90625 12.6875 C 22.53125 11.300781 22.570312 9.878906 22.03125 8.421875 C 21.46875 6.910156 20.5 5.835938 19.125 5.203125 Z M 19.125 5.203125 "/></g></g></g><g fill="#d0011b" fill-opacity="1"><g transform="translate(533.709284, 431.165661)"><g><path d="M 4.4375 3.8125 C 5.757812 0.476562 8.171875 -1.820312 11.671875 -3.09375 C 15.179688 -4.363281 18.539062 -4.09375 21.75 -2.28125 C 24.957031 -0.476562 27.257812 2.347656 28.65625 6.203125 C 30.039062 10.003906 30.066406 13.617188 28.734375 17.046875 C 27.410156 20.472656 25.007812 22.816406 21.53125 24.078125 C 18.0625 25.335938 14.738281 25.101562 11.5625 23.375 C 8.394531 21.644531 6.097656 18.820312 4.671875 14.90625 C 3.191406 10.84375 3.113281 7.144531 4.4375 3.8125 Z M 19.078125 5.34375 C 17.710938 4.695312 16.25 4.65625 14.6875 5.21875 C 13.132812 5.78125 12.035156 6.722656 11.390625 8.046875 C 10.753906 9.378906 10.726562 10.84375 11.3125 12.4375 C 11.863281 13.96875 12.820312 15.046875 14.1875 15.671875 C 15.550781 16.296875 17 16.332031 18.53125 15.78125 C 20.082031 15.21875 21.175781 14.242188 21.8125 12.859375 C 22.445312 11.472656 22.5 10.046875 21.96875 8.578125 C 21.414062 7.066406 20.453125 5.988281 19.078125 5.34375 Z M 19.078125 5.34375 "/></g></g></g><g fill="#ede3c0" fill-opacity="1"><g transform="translate(555.185059, 408.176641)"><g><path d="M 4.4375 3.8125 C 5.757812 0.476562 8.171875 -1.820312 11.671875 -3.09375 C 15.179688 -4.363281 18.539062 -4.09375 21.75 -2.28125 C 24.957031 -0.476562 27.257812 2.347656 28.65625 6.203125 C 30.039062 10.003906 30.066406 13.617188 28.734375 17.046875 C 27.410156 20.472656 25.007812 22.816406 21.53125 24.078125 C 18.0625 25.335938 14.738281 25.101562 11.5625 23.375 C 8.394531 21.644531 6.097656 18.820312 4.671875 14.90625 C 3.191406 10.84375 3.113281 7.144531 4.4375 3.8125 Z M 19.078125 5.34375 C 17.710938 4.695312 16.25 4.65625 14.6875 5.21875 C 13.132812 5.78125 12.035156 6.722656 11.390625 8.046875 C 10.753906 9.378906 10.726562 10.84375 11.3125 12.4375 C 11.863281 13.96875 12.820312 15.046875 14.1875 15.671875 C 15.550781 16.296875 17 16.332031 18.53125 15.78125 C 20.082031 15.21875 21.175781 14.242188 21.8125 12.859375 C 22.445312 11.472656 22.5 10.046875 21.96875 8.578125 C 21.414062 7.066406 20.453125 5.988281 19.078125 5.34375 Z M 19.078125 5.34375 "/></g></g></g><g fill="#d0011b" fill-opacity="1"><g transform="translate(483.409415, 456.915596)"><g><path d="M 4.4375 3.8125 C 5.757812 0.476562 8.171875 -1.820312 11.671875 -3.09375 C 15.179688 -4.363281 18.539062 -4.09375 21.75 -2.28125 C 24.957031 -0.476562 27.257812 2.347656 28.65625 6.203125 C 30.039062 10.003906 30.066406 13.617188 28.734375 17.046875 C 27.410156 20.472656 25.007812 22.816406 21.53125 24.078125 C 18.0625 25.335938 14.738281 25.101562 11.5625 23.375 C 8.394531 21.644531 6.097656 18.820312 4.671875 14.90625 C 3.191406 10.84375 3.113281 7.144531 4.4375 3.8125 Z M 19.078125 5.34375 C 17.710938 4.695312 16.25 4.65625 14.6875 5.21875 C 13.132812 5.78125 12.035156 6.722656 11.390625 8.046875 C 10.753906 9.378906 10.726562 10.84375 11.3125 12.4375 C 11.863281 13.96875 12.820312 15.046875 14.1875 15.671875 C 15.550781 16.296875 17 16.332031 18.53125 15.78125 C 20.082031 15.21875 21.175781 14.242188 21.8125 12.859375 C 22.445312 11.472656 22.5 10.046875 21.96875 8.578125 C 21.414062 7.066406 20.453125 5.988281 19.078125 5.34375 Z M 19.078125 5.34375 "/></g></g></g><g fill="#d0011b" fill-opacity="1"><g transform="translate(512.233485, 454.154636)"><g><path d="M 4.4375 3.8125 C 5.757812 0.476562 8.171875 -1.820312 11.671875 -3.09375 C 15.179688 -4.363281 18.539062 -4.09375 21.75 -2.28125 C 24.957031 -0.476562 27.257812 2.347656 28.65625 6.203125 C 30.039062 10.003906 30.066406 13.617188 28.734375 17.046875 C 27.410156 20.472656 25.007812 22.816406 21.53125 24.078125 C 18.0625 25.335938 14.738281 25.101562 11.5625 23.375 C 8.394531 21.644531 6.097656 18.820312 4.671875 14.90625 C 3.191406 10.84375 3.113281 7.144531 4.4375 3.8125 Z M 19.078125 5.34375 C 17.710938 4.695312 16.25 4.65625 14.6875 5.21875 C 13.132812 5.78125 12.035156 6.722656 11.390625 8.046875 C 10.753906 9.378906 10.726562 10.84375 11.3125 12.4375 C 11.863281 13.96875 12.820312 15.046875 14.1875 15.671875 C 15.550781 16.296875 17 16.332031 18.53125 15.78125 C 20.082031 15.21875 21.175781 14.242188 21.8125 12.859375 C 22.445312 11.472656 22.5 10.046875 21.96875 8.578125 C 21.414062 7.066406 20.453125 5.988281 19.078125 5.34375 Z M 19.078125 5.34375 "/></g></g></g><g fill="#ede3c0" fill-opacity="1"><g transform="translate(425.835962, 462.642787)"><g><path d="M 4.4375 3.8125 C 5.757812 0.476562 8.171875 -1.820312 11.671875 -3.09375 C 15.179688 -4.363281 18.539062 -4.09375 21.75 -2.28125 C 24.957031 -0.476562 27.257812 2.347656 28.65625 6.203125 C 30.039062 10.003906 30.066406 13.617188 28.734375 17.046875 C 27.410156 20.472656 25.007812 22.816406 21.53125 24.078125 C 18.0625 25.335938 14.738281 25.101562 11.5625 23.375 C 8.394531 21.644531 6.097656 18.820312 4.671875 14.90625 C 3.191406 10.84375 3.113281 7.144531 4.4375 3.8125 Z M 19.078125 5.34375 C 17.710938 4.695312 16.25 4.65625 14.6875 5.21875 C 13.132812 5.78125 12.035156 6.722656 11.390625 8.046875 C 10.753906 9.378906 10.726562 10.84375 11.3125 12.4375 C 11.863281 13.96875 12.820312 15.046875 14.1875 15.671875 C 15.550781 16.296875 17 16.332031 18.53125 15.78125 C 20.082031 15.21875 21.175781 14.242188 21.8125 12.859375 C 22.445312 11.472656 22.5 10.046875 21.96875 8.578125 C 21.414062 7.066406 20.453125 5.988281 19.078125 5.34375 Z M 19.078125 5.34375 "/></g></g></g><g fill="#ede3c0" fill-opacity="1"><g transform="translate(452.18568, 453.0707)"><g><path d="M 4.4375 3.8125 C 5.757812 0.476562 8.171875 -1.820312 11.671875 -3.09375 C 15.179688 -4.363281 18.539062 -4.09375 21.75 -2.28125 C 24.957031 -0.476562 27.257812 2.347656 28.65625 6.203125 C 30.039062 10.003906 30.066406 13.617188 28.734375 17.046875 C 27.410156 20.472656 25.007812 22.816406 21.53125 24.078125 C 18.0625 25.335938 14.738281 25.101562 11.5625 23.375 C 8.394531 21.644531 6.097656 18.820312 4.671875 14.90625 C 3.191406 10.84375 3.113281 7.144531 4.4375 3.8125 Z M 19.078125 5.34375 C 17.710938 4.695312 16.25 4.65625 14.6875 5.21875 C 13.132812 5.78125 12.035156 6.722656 11.390625 8.046875 C 10.753906 9.378906 10.726562 10.84375 11.3125 12.4375 C 11.863281 13.96875 12.820312 15.046875 14.1875 15.671875 C 15.550781 16.296875 17 16.332031 18.53125 15.78125 C 20.082031 15.21875 21.175781 14.242188 21.8125 12.859375 C 22.445312 11.472656 22.5 10.046875 21.96875 8.578125 C 21.414062 7.066406 20.453125 5.988281 19.078125 5.34375 Z M 19.078125 5.34375 "/></g></g></g><g fill="#ede3c0" fill-opacity="1"><g transform="translate(404.360139, 485.631738)"><g><path d="M 4.4375 3.8125 C 5.757812 0.476562 8.171875 -1.820312 11.671875 -3.09375 C 15.179688 -4.363281 18.539062 -4.09375 21.75 -2.28125 C 24.957031 -0.476562 27.257812 2.347656 28.65625 6.203125 C 30.039062 10.003906 30.066406 13.617188 28.734375 17.046875 C 27.410156 20.472656 25.007812 22.816406 21.53125 24.078125 C 18.0625 25.335938 14.738281 25.101562 11.5625 23.375 C 8.394531 21.644531 6.097656 18.820312 4.671875 14.90625 C 3.191406 10.84375 3.113281 7.144531 4.4375 3.8125 Z M 19.078125 5.34375 C 17.710938 4.695312 16.25 4.65625 14.6875 5.21875 C 13.132812 5.78125 12.035156 6.722656 11.390625 8.046875 C 10.753906 9.378906 10.726562 10.84375 11.3125 12.4375 C 11.863281 13.96875 12.820312 15.046875 14.1875 15.671875 C 15.550781 16.296875 17 16.332031 18.53125 15.78125 C 20.082031 15.21875 21.175781 14.242188 21.8125 12.859375 C 22.445312 11.472656 22.5 10.046875 21.96875 8.578125 C 21.414062 7.066406 20.453125 5.988281 19.078125 5.34375 Z M 19.078125 5.34375 "/></g></g></g></svg>