<svg xmlns="http://www.w3.org/2000/svg" xmlns:xlink="http://www.w3.org/1999/xlink" width="1920" zoomAndPan="magnify" viewBox="0 0 1440 809.999993" height="1080" preserveAspectRatio="xMidYMid meet" version="1.0"><defs><g/></defs><g fill="#ede3c0" fill-opacity="1"><g transform="translate(311.791836, 343.43474)"><g><path d="M 171.21875 -130.75 C 185.195312 -115.414062 192.1875 -96.679688 192.1875 -74.546875 C 192.1875 -52.410156 185.195312 -33.722656 171.21875 -18.484375 C 157.25 -3.242188 139.488281 4.375 117.9375 4.375 C 98.132812 4.375 81.828125 -2.710938 69.015625 -16.890625 L 68.4375 -16.890625 L 68.4375 0 L 17.46875 0 L 17.46875 -250.4375 L 69.015625 -250.4375 L 69.015625 -135.125 C 81.828125 -147.539062 98.132812 -153.75 117.9375 -153.75 C 139.488281 -153.75 157.25 -146.082031 171.21875 -130.75 Z M 127.84375 -49.359375 C 134.25 -55.859375 137.453125 -64.253906 137.453125 -74.546875 C 137.453125 -84.835938 134.101562 -93.28125 127.40625 -99.875 C 120.707031 -106.476562 112.40625 -109.78125 102.5 -109.78125 C 92.789062 -109.78125 84.585938 -106.476562 77.890625 -99.875 C 71.191406 -93.28125 67.84375 -84.835938 67.84375 -74.546875 C 67.84375 -64.453125 71.09375 -56.101562 77.59375 -49.5 C 84.101562 -42.90625 92.40625 -39.609375 102.5 -39.609375 C 112.988281 -39.609375 121.4375 -42.859375 127.84375 -49.359375 Z M 127.84375 -49.359375 "/></g></g></g><g fill="#ede3c0" fill-opacity="1"><g transform="translate(496.107884, 343.43474)"><g><path d="M -8.734375 -240.25 L 57.078125 -240.25 L 107.15625 -163.359375 L 157.25 -240.25 L 223.0625 -240.25 L 134.53125 -107.75 L 134.53125 0 L 79.796875 0 L 79.796875 -107.75 Z M -8.734375 -240.25 "/></g></g></g><g fill="#d0011b" fill-opacity="1"><g transform="translate(-9.594031, 604.229069)"><g><path d="M 123.015625 0 L -10.828125 -319.140625 L 71.171875 -319.140625 L 151.640625 -109.484375 L 232.109375 -319.140625 L 314.109375 -319.140625 L 180.265625 0 Z M 123.015625 0 "/></g></g></g><g fill="#d0011b" fill-opacity="1"><g transform="translate(274.327254, 604.229069)"><g><path d="M 223.984375 -89.75 L 80.078125 -89.75 C 80.078125 -75.820312 84.585938 -65.503906 93.609375 -58.796875 C 102.640625 -52.097656 112.441406 -48.75 123.015625 -48.75 C 134.109375 -48.75 142.878906 -50.226562 149.328125 -53.1875 C 155.773438 -56.15625 163.125 -62.023438 171.375 -70.796875 L 220.890625 -46.03125 C 200.253906 -11.476562 165.953125 5.796875 117.984375 5.796875 C 88.066406 5.796875 62.40625 -4.453125 41 -24.953125 C 19.59375 -45.453125 8.890625 -70.144531 8.890625 -99.03125 C 8.890625 -127.914062 19.59375 -152.671875 41 -173.296875 C 62.40625 -193.929688 88.066406 -204.25 117.984375 -204.25 C 149.453125 -204.25 175.050781 -195.15625 194.78125 -176.96875 C 214.507812 -158.789062 224.375 -132.8125 224.375 -99.03125 C 224.375 -94.382812 224.242188 -91.289062 223.984375 -89.75 Z M 82.015625 -127.65625 L 157.453125 -127.65625 C 155.898438 -137.96875 151.832031 -145.894531 145.25 -151.4375 C 138.675781 -156.988281 130.234375 -159.765625 119.921875 -159.765625 C 108.578125 -159.765625 99.550781 -156.796875 92.84375 -150.859375 C 86.132812 -144.929688 82.523438 -137.195312 82.015625 -127.65625 Z M 82.015625 -127.65625 "/></g></g></g><g fill="#d0011b" fill-opacity="1"><g transform="translate(488.234719, 604.229069)"><g><path d="M 109.484375 -204.25 C 120.828125 -204.25 132.039062 -202.957031 143.125 -200.375 C 154.21875 -197.800781 162.472656 -195.222656 167.890625 -192.640625 L 176.015625 -188.78125 L 153.578125 -143.90625 C 138.097656 -152.15625 123.398438 -156.28125 109.484375 -156.28125 C 101.742188 -156.28125 96.257812 -155.441406 93.03125 -153.765625 C 89.8125 -152.085938 88.203125 -148.929688 88.203125 -144.296875 C 88.203125 -143.265625 88.328125 -142.234375 88.578125 -141.203125 C 88.835938 -140.171875 89.351562 -139.203125 90.125 -138.296875 C 90.90625 -137.390625 91.617188 -136.613281 92.265625 -135.96875 C 92.910156 -135.332031 94.003906 -134.625 95.546875 -133.84375 C 97.097656 -133.070312 98.320312 -132.492188 99.21875 -132.109375 C 100.125 -131.722656 101.609375 -131.140625 103.671875 -130.359375 C 105.734375 -129.585938 107.28125 -129.007812 108.3125 -128.625 C 109.34375 -128.238281 111.082031 -127.65625 113.53125 -126.875 C 115.988281 -126.101562 117.859375 -125.59375 119.140625 -125.34375 C 127.140625 -123.019531 134.101562 -120.4375 140.03125 -117.59375 C 145.96875 -114.757812 152.222656 -110.890625 158.796875 -105.984375 C 165.367188 -101.085938 170.460938 -94.898438 174.078125 -87.421875 C 177.691406 -79.941406 179.5 -71.429688 179.5 -61.890625 C 179.5 -16.765625 148.164062 5.796875 85.5 5.796875 C 71.3125 5.796875 57.832031 3.609375 45.0625 -0.765625 C 32.300781 -5.148438 23.082031 -9.535156 17.40625 -13.921875 L 8.890625 -20.890625 L 36.75 -67.703125 C 38.8125 -65.890625 41.519531 -63.757812 44.875 -61.3125 C 48.226562 -58.863281 54.285156 -55.507812 63.046875 -51.25 C 71.816406 -47 79.425781 -44.875 85.875 -44.875 C 100.0625 -44.875 107.15625 -49.644531 107.15625 -59.1875 C 107.15625 -63.570312 105.347656 -66.988281 101.734375 -69.4375 C 98.128906 -71.882812 92.003906 -74.65625 83.359375 -77.75 C 74.722656 -80.84375 67.957031 -83.679688 63.0625 -86.265625 C 50.675781 -92.710938 40.875 -100 33.65625 -108.125 C 26.4375 -116.25 22.828125 -127.015625 22.828125 -140.421875 C 22.828125 -160.535156 30.625 -176.203125 46.21875 -187.421875 C 61.820312 -198.640625 82.910156 -204.25 109.484375 -204.25 Z M 109.484375 -204.25 "/></g></g></g><g fill="#d0011b" fill-opacity="1"><g transform="translate(659.205541, 604.229069)"><g><path d="M 3.09375 -255.3125 L 3.09375 -319.140625 L 227.46875 -319.140625 L 227.46875 -255.3125 L 151.640625 -255.3125 L 151.640625 0 L 78.921875 0 L 78.921875 -255.3125 Z M 3.09375 -255.3125 "/></g></g></g><g fill="#ffffff" fill-opacity="1"><g transform="translate(870.417143, 604.229069)"><g><path d="M 8.890625 -159.765625 C 8.890625 -205.929688 24.617188 -245.003906 56.078125 -276.984375 C 87.546875 -308.960938 125.460938 -324.953125 169.828125 -324.953125 C 214.441406 -324.953125 252.347656 -309.023438 283.546875 -277.171875 C 314.753906 -245.316406 330.359375 -206.179688 330.359375 -159.765625 C 330.359375 -113.085938 315.015625 -73.820312 284.328125 -41.96875 C 253.640625 -10.125 215.472656 5.796875 169.828125 5.796875 C 123.148438 5.796875 84.65625 -9.992188 54.34375 -41.578125 C 24.039062 -73.171875 8.890625 -112.566406 8.890625 -159.765625 Z M 87.421875 -159.765625 C 87.421875 -143.003906 90 -127.722656 95.15625 -113.921875 C 100.320312 -100.128906 109.347656 -88.460938 122.234375 -78.921875 C 135.128906 -69.378906 150.992188 -64.609375 169.828125 -64.609375 C 196.898438 -64.609375 217.332031 -73.890625 231.125 -92.453125 C 244.925781 -111.023438 251.828125 -133.460938 251.828125 -159.765625 C 251.828125 -185.816406 244.800781 -208.191406 230.75 -226.890625 C 216.695312 -245.585938 196.390625 -254.9375 169.828125 -254.9375 C 143.515625 -254.9375 123.203125 -245.585938 108.890625 -226.890625 C 94.578125 -208.191406 87.421875 -185.816406 87.421875 -159.765625 Z M 87.421875 -159.765625 "/></g></g></g><g fill="#d0011b" fill-opacity="1"><g transform="translate(1190.326205, 604.229069)"><g><path d="M 23.203125 0 L 23.203125 -198.453125 L 91.6875 -198.453125 L 91.6875 -177.5625 L 92.453125 -177.5625 C 110.242188 -195.351562 129.203125 -204.25 149.328125 -204.25 C 159.117188 -204.25 168.847656 -202.957031 178.515625 -200.375 C 188.191406 -197.800781 197.476562 -193.804688 206.375 -188.390625 C 215.28125 -182.972656 222.503906 -175.300781 228.046875 -165.375 C 233.585938 -155.445312 236.359375 -143.90625 236.359375 -130.75 L 236.359375 0 L 167.890625 0 L 167.890625 -112.1875 C 167.890625 -122.5 164.597656 -131.523438 158.015625 -139.265625 C 151.441406 -147.003906 142.867188 -150.875 132.296875 -150.875 C 121.984375 -150.875 112.632812 -146.875 104.25 -138.875 C 95.875 -130.882812 91.6875 -121.988281 91.6875 -112.1875 L 91.6875 0 Z M 23.203125 0 "/></g></g></g></svg>