<svg xmlns="http://www.w3.org/2000/svg" xmlns:xlink="http://www.w3.org/1999/xlink" width="1920" zoomAndPan="magnify" viewBox="0 0 1440 809.999993" height="1080" preserveAspectRatio="xMidYMid meet" version="1.0"><defs><g/></defs><g fill="#ede3c0" fill-opacity="1"><g transform="translate(201.781666, 300.693479)"><g><path d="M 18.75 -257.921875 L 110.984375 -257.921875 C 135.785156 -257.921875 156 -251.300781 171.625 -238.0625 C 187.257812 -224.832031 195.078125 -205.921875 195.078125 -181.328125 C 195.078125 -162.359375 190.332031 -146.460938 180.84375 -133.640625 C 171.363281 -120.828125 158.5 -111.816406 142.25 -106.609375 L 231.03125 0 L 156.3125 0 L 77.53125 -101.921875 L 77.53125 0 L 18.75 0 Z M 77.53125 -143.5 L 84.40625 -143.5 C 89.820312 -143.5 94.40625 -143.601562 98.15625 -143.8125 C 101.914062 -144.019531 106.191406 -144.75 110.984375 -146 C 115.773438 -147.25 119.628906 -149.019531 122.546875 -151.3125 C 125.460938 -153.601562 127.960938 -156.9375 130.046875 -161.3125 C 132.128906 -165.6875 133.171875 -171 133.171875 -177.25 C 133.171875 -183.507812 132.128906 -188.828125 130.046875 -193.203125 C 127.960938 -197.578125 125.460938 -200.910156 122.546875 -203.203125 C 119.628906 -205.492188 115.773438 -207.265625 110.984375 -208.515625 C 106.191406 -209.765625 101.914062 -210.492188 98.15625 -210.703125 C 94.40625 -210.910156 89.820312 -211.015625 84.40625 -211.015625 L 77.53125 -211.015625 Z M 77.53125 -143.5 "/></g></g></g><g fill="#ede3c0" fill-opacity="1"><g transform="translate(409.987125, 300.693479)"><g><path d="M 181.015625 -72.53125 L 64.71875 -72.53125 C 64.71875 -61.269531 68.363281 -52.929688 75.65625 -47.515625 C 82.945312 -42.097656 90.867188 -39.390625 99.421875 -39.390625 C 108.378906 -39.390625 115.460938 -40.585938 120.671875 -42.984375 C 125.878906 -45.378906 131.820312 -50.117188 138.5 -57.203125 L 178.515625 -37.203125 C 161.835938 -9.273438 134.113281 4.6875 95.34375 4.6875 C 71.175781 4.6875 50.441406 -3.59375 33.140625 -20.15625 C 15.835938 -36.726562 7.1875 -56.6875 7.1875 -80.03125 C 7.1875 -103.375 15.835938 -123.378906 33.140625 -140.046875 C 50.441406 -156.722656 71.175781 -165.0625 95.34375 -165.0625 C 120.769531 -165.0625 141.457031 -157.710938 157.40625 -143.015625 C 173.351562 -128.328125 181.328125 -107.332031 181.328125 -80.03125 C 181.328125 -76.28125 181.222656 -73.78125 181.015625 -72.53125 Z M 66.28125 -103.171875 L 127.234375 -103.171875 C 125.984375 -111.503906 122.703125 -117.910156 117.390625 -122.390625 C 112.078125 -126.867188 105.25 -129.109375 96.90625 -129.109375 C 87.738281 -129.109375 80.445312 -126.710938 75.03125 -121.921875 C 69.613281 -117.128906 66.695312 -110.878906 66.28125 -103.171875 Z M 66.28125 -103.171875 "/></g></g></g><g fill="#ede3c0" fill-opacity="1"><g transform="translate(582.866411, 300.693479)"><g><path d="M 29.6875 -19.84375 C 14.6875 -36.207031 7.1875 -56.269531 7.1875 -80.03125 C 7.1875 -103.789062 14.6875 -123.898438 29.6875 -140.359375 C 44.695312 -156.828125 63.769531 -165.0625 86.90625 -165.0625 C 108.164062 -165.0625 125.675781 -158.394531 139.4375 -145.0625 L 139.4375 -160.375 L 194.765625 -160.375 L 194.765625 0 L 140.0625 0 L 140.0625 -18.125 L 139.4375 -18.125 C 125.675781 -2.914062 108.164062 4.6875 86.90625 4.6875 C 63.769531 4.6875 44.695312 -3.488281 29.6875 -19.84375 Z M 76.75 -107.21875 C 69.5625 -100.132812 65.96875 -91.070312 65.96875 -80.03125 C 65.96875 -68.988281 69.40625 -59.972656 76.28125 -52.984375 C 83.15625 -46.003906 92.222656 -42.515625 103.484375 -42.515625 C 114.316406 -42.515625 123.222656 -46.054688 130.203125 -53.140625 C 137.191406 -60.234375 140.6875 -69.195312 140.6875 -80.03125 C 140.6875 -91.070312 137.085938 -100.132812 129.890625 -107.21875 C 122.703125 -114.3125 113.898438 -117.859375 103.484375 -117.859375 C 92.847656 -117.859375 83.9375 -114.3125 76.75 -107.21875 Z M 76.75 -107.21875 "/></g></g></g><g fill="#ede3c0" fill-opacity="1"><g transform="translate(673.64042, 488.265799)"><g><path d="M 29.6875 -19.84375 C 14.6875 -36.207031 7.1875 -56.269531 7.1875 -80.03125 C 7.1875 -103.789062 14.6875 -123.898438 29.6875 -140.359375 C 44.695312 -156.828125 63.769531 -165.0625 86.90625 -165.0625 C 108.164062 -165.0625 125.675781 -158.394531 139.4375 -145.0625 L 139.4375 -268.859375 L 194.765625 -268.859375 L 194.765625 0 L 140.0625 0 L 140.0625 -18.125 L 139.4375 -18.125 C 125.675781 -2.914062 108.164062 4.6875 86.90625 4.6875 C 63.769531 4.6875 44.695312 -3.488281 29.6875 -19.84375 Z M 76.75 -107.21875 C 69.5625 -100.132812 65.96875 -91.070312 65.96875 -80.03125 C 65.96875 -68.988281 69.40625 -59.972656 76.28125 -52.984375 C 83.15625 -46.003906 92.222656 -42.515625 103.484375 -42.515625 C 114.316406 -42.515625 123.222656 -46.054688 130.203125 -53.140625 C 137.191406 -60.234375 140.6875 -69.195312 140.6875 -80.03125 C 140.6875 -91.070312 137.085938 -100.132812 129.890625 -107.21875 C 122.703125 -114.3125 113.898438 -117.859375 103.484375 -117.859375 C 92.847656 -117.859375 83.9375 -114.3125 76.75 -107.21875 Z M 76.75 -107.21875 "/></g></g></g><g fill="#ede3c0" fill-opacity="1"><g transform="translate(871.529376, 488.265799)"><g><path d="M -9.375 -257.921875 L 61.28125 -257.921875 L 115.046875 -175.375 L 168.8125 -257.921875 L 239.46875 -257.921875 L 144.4375 -115.671875 L 144.4375 0 L 85.65625 0 L 85.65625 -115.671875 Z M -9.375 -257.921875 "/></g></g></g><g fill="#ede3c0" fill-opacity="1"><g transform="translate(201.77005, 589.554921)"><g><path d="M 88.46875 -165.0625 C 97.644531 -165.0625 106.710938 -164.019531 115.671875 -161.9375 C 124.628906 -159.851562 131.296875 -157.769531 135.671875 -155.6875 L 142.25 -152.5625 L 124.109375 -116.296875 C 111.609375 -122.960938 99.726562 -126.296875 88.46875 -126.296875 C 82.21875 -126.296875 77.789062 -125.617188 75.1875 -124.265625 C 72.582031 -122.910156 71.28125 -120.359375 71.28125 -116.609375 C 71.28125 -115.773438 71.382812 -114.941406 71.59375 -114.109375 C 71.800781 -113.273438 72.21875 -112.492188 72.84375 -111.765625 C 73.46875 -111.035156 74.039062 -110.410156 74.5625 -109.890625 C 75.082031 -109.367188 75.96875 -108.796875 77.21875 -108.171875 C 78.46875 -107.546875 79.457031 -107.078125 80.1875 -106.765625 C 80.914062 -106.453125 82.113281 -105.984375 83.78125 -105.359375 C 85.445312 -104.734375 86.695312 -104.265625 87.53125 -103.953125 C 88.363281 -103.640625 89.769531 -103.171875 91.75 -102.546875 C 93.726562 -101.921875 95.238281 -101.503906 96.28125 -101.296875 C 102.75 -99.421875 108.378906 -97.332031 113.171875 -95.03125 C 117.960938 -92.738281 123.015625 -89.613281 128.328125 -85.65625 C 133.640625 -81.695312 137.753906 -76.695312 140.671875 -70.65625 C 143.597656 -64.613281 145.0625 -57.734375 145.0625 -50.015625 C 145.0625 -13.546875 119.738281 4.6875 69.09375 4.6875 C 57.625 4.6875 46.734375 2.914062 36.421875 -0.625 C 26.109375 -4.164062 18.65625 -7.707031 14.0625 -11.25 L 7.1875 -16.875 L 29.703125 -54.703125 C 31.367188 -53.242188 33.554688 -51.523438 36.265625 -49.546875 C 38.972656 -47.566406 43.867188 -44.859375 50.953125 -41.421875 C 58.046875 -37.984375 64.195312 -36.265625 69.40625 -36.265625 C 80.863281 -36.265625 86.59375 -40.117188 86.59375 -47.828125 C 86.59375 -51.367188 85.132812 -54.128906 82.21875 -56.109375 C 79.300781 -58.097656 74.347656 -60.34375 67.359375 -62.84375 C 60.378906 -65.34375 54.910156 -67.632812 50.953125 -69.71875 C 40.953125 -74.925781 33.03125 -80.8125 27.1875 -87.375 C 21.351562 -93.9375 18.4375 -102.640625 18.4375 -113.484375 C 18.4375 -129.742188 24.738281 -142.40625 37.34375 -151.46875 C 49.957031 -160.53125 67 -165.0625 88.46875 -165.0625 Z M 88.46875 -165.0625 "/></g></g></g><g fill="#d0011b" fill-opacity="1"><g transform="translate(339.972052, 589.554921)"><g><path d="M 166.3125 -257.921875 L 166.3125 -206.328125 L 77.53125 -206.328125 L 77.53125 -155.0625 L 162.5625 -155.0625 L 162.5625 -103.484375 L 77.53125 -103.484375 L 77.53125 -51.578125 L 166.3125 -51.578125 L 166.3125 0 L 18.75 0 L 18.75 -257.921875 Z M 166.3125 -257.921875 "/></g></g></g><g fill="#ede3c0" fill-opacity="1"><g transform="translate(536.894499, 780.997938)"><g><path d="M 2.546875 -210.25 L 2.546875 -262.8125 L 187.3125 -262.8125 L 187.3125 -210.25 L 124.875 -210.25 L 124.875 0 L 64.984375 0 L 64.984375 -210.25 Z M 2.546875 -210.25 "/></g></g></g><g fill="#d0011b" fill-opacity="1"><g transform="translate(710.824561, 780.997938)"><g><path d="M 256.765625 -147.171875 L 256.765625 -90.15625 C 249.960938 -58.9375 235.09375 -35.304688 212.15625 -19.265625 C 189.226562 -3.234375 163.640625 4.78125 135.390625 4.78125 C 99.921875 4.78125 69.707031 -8.488281 44.75 -35.03125 C 19.800781 -61.582031 7.328125 -93.65625 7.328125 -131.25 C 7.328125 -169.476562 19.535156 -201.757812 43.953125 -228.09375 C 68.378906 -254.425781 98.859375 -267.59375 135.390625 -267.59375 C 178.078125 -267.59375 211.84375 -252.617188 236.6875 -222.671875 L 197.515625 -179.671875 C 183.492188 -202.179688 163.953125 -213.4375 138.890625 -213.4375 C 120.410156 -213.4375 104.640625 -205.414062 91.578125 -189.375 C 78.523438 -173.34375 72 -153.96875 72 -131.25 C 72 -108.945312 78.523438 -89.882812 91.578125 -74.0625 C 104.640625 -58.238281 120.410156 -50.328125 138.890625 -50.328125 C 154.179688 -50.328125 167.507812 -54.945312 178.875 -64.1875 C 190.238281 -73.425781 195.921875 -85.691406 195.921875 -100.984375 L 135.390625 -100.984375 L 135.390625 -147.171875 Z M 256.765625 -147.171875 "/></g></g></g><g fill="#d0011b" fill-opacity="1"><g transform="translate(958.975593, 780.997938)"><g><path d="M 7.328125 -131.5625 C 7.328125 -169.582031 20.28125 -201.757812 46.1875 -228.09375 C 72.101562 -254.425781 103.320312 -267.59375 139.84375 -267.59375 C 176.582031 -267.59375 207.800781 -254.476562 233.5 -228.25 C 259.195312 -202.019531 272.046875 -169.789062 272.046875 -131.5625 C 272.046875 -93.125 259.410156 -60.789062 234.140625 -34.5625 C 208.867188 -8.332031 177.4375 4.78125 139.84375 4.78125 C 101.40625 4.78125 69.707031 -8.222656 44.75 -34.234375 C 19.800781 -60.253906 7.328125 -92.695312 7.328125 -131.5625 Z M 72 -131.5625 C 72 -117.757812 74.117188 -105.175781 78.359375 -93.8125 C 82.609375 -82.457031 90.039062 -72.847656 100.65625 -64.984375 C 111.28125 -57.128906 124.34375 -53.203125 139.84375 -53.203125 C 162.144531 -53.203125 178.976562 -60.847656 190.34375 -76.140625 C 201.707031 -91.429688 207.390625 -109.90625 207.390625 -131.5625 C 207.390625 -153.007812 201.597656 -171.429688 190.015625 -186.828125 C 178.441406 -202.234375 161.71875 -209.9375 139.84375 -209.9375 C 118.1875 -209.9375 101.460938 -202.234375 89.671875 -186.828125 C 77.890625 -171.429688 72 -153.007812 72 -131.5625 Z M 72 -131.5625 "/></g></g></g></svg>